<svg width="59" height="60" viewBox="0 0 59 60" fill="none" xmlns="http://www.w3.org/2000/svg">
<path d="M57.1616 51.3112C53.2895 26.844 54.2409 25.1556 49.8054 24.7773H37.6441H37.6348C35.8964 24.7773 34.2837 26.069 33.9936 27.8902C33.9641 28.0765 33.0127 33.959 33.0718 33.5973L35.2702 51.0897C35.6581 54.2266 34.679 57.4003 32.573 59.7806L32.5176 59.8359C33.1106 59.8359 50.681 59.8359 49.8571 59.8359H49.8645C54.2834 59.8359 57.8563 55.7322 57.1616 51.3112Z" fill="#191919"/>
<path d="M27.5027 18.7859C27.2718 16.9389 25.7015 15.5513 23.8375 15.5513H8.19203C6.32803 15.5513 4.75775 16.937 4.52498 18.784L0.42749 51.5398C-0.124877 55.9462 3.31495 59.8358 7.75975 59.8358H24.2698C28.7146 59.8358 32.1544 55.9443 31.602 51.538C31.6353 51.8 30.7763 44.9654 27.5027 18.7859Z" fill="#191919"/>
<path d="M46.9034 21.0873C46.9773 20.995 47.0328 20.8843 47.0882 20.7736C48.9152 21.687 50.8347 20.4839 51.0785 18.7069C53.0497 19.8879 55.4513 19.0077 56.3251 17.0647C57.5998 16.4926 58.505 15.201 58.505 13.7063C58.505 10.538 54.7216 8.79428 52.2978 11.0123C50.8882 9.2925 48.1061 9.90143 47.5315 12.064C45.4717 11.2171 43.1126 13.0808 43.8922 15.57C40.6186 15.57 39.1962 18.8139 40.53 21.0873H46.9034Z" fill="#191919"/>
<path d="M19.211 11.861C19.6858 11.0528 19.6914 10.4623 19.6914 9.84971C20.8238 10.2021 21.7475 9.9475 22.4809 9.29615C23.4877 10.1892 24.8382 10.2298 25.8801 9.53603C26.4676 10.0582 27.2656 10.1929 28.0231 9.739C28.7879 10.1984 29.5841 10.0527 30.166 9.53603C31.8822 10.6782 34.1176 9.66888 34.4519 7.69084C35.5604 7.04503 36.3363 5.86411 36.3363 4.48022C36.3363 1.09799 32.1446 -0.514702 29.8704 2.06302C28.4849 0.490924 26.1609 0.345154 24.5869 1.78624C23.6355 0.623777 21.8713 0.409736 20.6335 1.50947C19.067 0.118196 16.7319 0.84889 16.1444 2.76419C14.5667 3.24763 13.6523 5.00056 14.4818 6.65754C12.4441 7.60227 11.7495 10.0379 12.8191 11.861H19.211Z" fill="#191919"/>
</svg>
