<svg width="16" height="24" viewBox="0 0 16 24" fill="none" xmlns="http://www.w3.org/2000/svg">
<path d="M14.339 19.2719C14.8247 17.9144 15.8601 14.7561 15.5341 13.3126C15.4432 12.9121 15.1084 12.3534 14.5874 12.0736C14.4445 11.997 14.2958 11.9494 14.1476 11.9251V0.766113H0.03125V14.8667L5.1568 14.8557C5.51103 15.8136 5.99584 16.7133 6.61916 17.5293L7.95889 19.2719H6.64827V23.6781H15.9121V19.2719H14.339ZM0.91352 1.64734H13.2653V11.4312C13.211 11.4074 13.1568 11.3832 13.0986 11.3651C12.6865 11.2356 12.2436 11.262 11.885 11.4237C11.4103 11.0906 10.9732 11.0465 10.6723 11.0739C10.66 11.0752 10.6476 11.0765 10.6353 11.0783C10.6286 10.7077 10.6233 10.1935 10.6185 9.62865C11.7218 9.05937 12.4249 7.9336 12.4249 6.67168C12.4249 4.8277 10.9233 3.32785 9.07761 3.32785C7.23146 3.32785 5.72983 4.8277 5.72983 6.67168C5.72983 7.91377 6.41756 9.03338 7.4979 9.61367V12.0816L6.96986 11.0474C6.60504 10.3358 5.75409 10.049 5.03416 10.3936C4.37731 10.7073 4.04955 11.4665 4.27144 12.1587L4.85418 13.9753L0.91352 13.9837V1.64734ZM7.4979 6.88317V8.565C6.94516 8.10412 6.6121 7.41588 6.6121 6.67124C6.6121 5.31326 7.71803 4.20864 9.07761 4.20864C10.4367 4.20864 11.5427 5.31326 11.5427 6.67124C11.5427 7.43835 11.1906 8.13893 10.6114 8.59673C10.6079 7.99264 10.6048 7.38988 10.6035 6.88317C10.6035 6.02838 9.90694 5.33221 9.0507 5.33221C8.19445 5.33221 7.4979 6.02794 7.4979 6.88317ZM7.31968 16.9935C6.66636 16.1383 6.16876 15.1852 5.84012 14.1613L5.1118 11.8899C5.02357 11.6145 5.15415 11.3131 5.4153 11.1884C5.70116 11.051 6.03951 11.1655 6.1842 11.4479L7.41982 13.866C7.52657 14.0762 7.7617 14.1833 7.99109 14.1291C8.22048 14.074 8.38061 13.8709 8.38061 13.6356V6.88317C8.38061 6.51394 8.68147 6.21344 9.05114 6.21344C9.42081 6.21344 9.72166 6.51394 9.72166 6.88405C9.73798 12.0304 9.73798 12.0304 10.0834 12.1428C10.2629 12.2005 10.4363 12.1684 10.5492 12.0146C10.5532 12.0119 10.9683 11.7489 11.5524 12.2851C11.7165 12.4376 11.9697 12.4411 12.1391 12.2944C12.293 12.1617 12.5798 12.1247 12.8352 12.2054C13.0311 12.267 13.1687 12.3825 13.2027 12.5147C13.2335 12.6363 13.3156 12.7389 13.4272 12.7967C13.5388 12.8544 13.6694 12.8619 13.7867 12.8174C13.9147 12.7685 14.0373 12.7786 14.1709 12.8495C14.4202 12.9835 14.6262 13.295 14.6743 13.5061C14.9421 14.6909 13.9288 17.8382 13.4012 19.2715H9.07187L7.31968 16.9935ZM15.0298 22.7969H7.53054V20.1532H15.0298V22.7969Z" fill="white"/>
</svg>
