<svg width="30" height="59" viewBox="0 0 30 59" fill="none" xmlns="http://www.w3.org/2000/svg">
<path d="M13.37 16.9298H18.4832C18.9922 16.9298 19.4802 17.1317 19.8401 17.4911C20.2 17.8506 20.4021 18.3381 20.4021 18.8464C20.4021 19.3547 20.2 19.8422 19.8401 20.2017C19.4802 20.5611 18.9922 20.763 18.4832 20.763H14.5196C14.3512 20.763 14.1898 20.8298 14.0707 20.9487C13.9517 21.0676 13.8848 21.2289 13.8848 21.3971C13.8848 21.5652 13.9517 21.7265 14.0707 21.8454C14.1898 21.9643 14.3512 22.0311 14.5196 22.0311H19.0127C19.332 22.0313 19.6478 21.964 19.9392 21.8336C20.2306 21.7032 20.4911 21.5126 20.7034 21.2743L25.5417 15.7523C25.8937 15.3668 26.3831 15.1348 26.9047 15.1063C27.4262 15.0778 27.9381 15.255 28.3301 15.5998C28.7221 15.9446 28.9629 16.4294 29.0005 16.9497C29.0381 17.4701 28.8696 17.9844 28.5312 18.3818L22.4878 25.394C22.0432 25.9069 21.4934 26.3185 20.8757 26.6008C20.2579 26.8831 19.5867 27.0295 18.9074 27.0301H9.48243L7.83847 28.6721L0.601562 22.7469L4.75825 18.6565C5.86902 17.5617 7.2759 16.815 8.80589 16.5083C10.3359 16.2015 11.9223 16.348 13.37 16.9298V16.9298ZM12.9956 7.87244C12.8784 7.89387 12.7637 7.92715 12.6533 7.97178C12.5499 8.01494 12.4517 8.06984 12.3608 8.13539C12.2708 8.19896 12.1901 8.27467 12.1209 8.36037C12.029 8.47494 11.9596 8.60577 11.9162 8.74603C11.8757 8.87836 11.8608 9.01718 11.8723 9.15507C11.8839 9.29487 11.9205 9.43145 11.9805 9.55827C12.0441 9.69364 12.1291 9.81793 12.2321 9.9264L16.5672 14.5077C16.6346 14.5786 16.7103 14.6414 16.7925 14.6946C16.878 14.7507 16.9692 14.7977 17.0645 14.8349C17.1591 14.873 17.257 14.9023 17.357 14.9225C17.5716 14.9624 17.7918 14.9624 18.0064 14.9225C18.1064 14.9023 18.2043 14.873 18.2989 14.8349C18.3942 14.7977 18.4854 14.7507 18.571 14.6946C18.6532 14.6414 18.7288 14.5786 18.7962 14.5077L23.1694 9.92056C23.2203 9.86759 23.2672 9.81095 23.3098 9.7511C23.3507 9.69274 23.3869 9.63119 23.418 9.56703C23.4478 9.50494 23.4723 9.44043 23.4911 9.3742C23.5097 9.30824 23.5224 9.24079 23.5292 9.1726C23.5327 9.12105 23.5327 9.06931 23.5292 9.01775C23.527 8.96578 23.5211 8.91404 23.5116 8.8629C23.5025 8.81238 23.4898 8.76259 23.4736 8.71389C23.4567 8.66472 23.4362 8.61687 23.4122 8.57073C23.3554 8.46286 23.2824 8.36432 23.1957 8.27856C23.1095 8.18832 23.011 8.11063 22.9032 8.04774C22.7853 7.98281 22.6595 7.93369 22.5288 7.90166C22.3901 7.8667 22.2476 7.84904 22.1046 7.84907H20.291L20.5689 1.59368C20.5775 1.39433 20.5446 1.19536 20.4723 1.00933C20.4003 0.825916 20.2918 0.658951 20.1535 0.518486C20.0135 0.375179 19.8465 0.260984 19.6621 0.182489C19.4664 0.0926896 19.2543 0.0439629 19.039 0.0393249H16.3566C16.1447 0.0383054 15.9348 0.0800438 15.7394 0.162037C15.555 0.240532 15.388 0.354727 15.248 0.498034C15.1096 0.638499 15.0012 0.805464 14.9291 0.988882C14.8569 1.1749 14.824 1.37387 14.8326 1.57322L15.1046 7.83446H13.3495C13.2298 7.83556 13.1103 7.84729 12.9926 7.86952L12.9956 7.87244Z" fill="#A5593C"/>
<path d="M16.2629 29.6228V57.6483M16.2629 57.6483L13.5938 53.6447M16.2629 57.6483L18.7268 53.6447" stroke="#A5593C" stroke-width="0.788665" stroke-dasharray="3.15 3.15"/>
</svg>
