<svg width="33" height="62" viewBox="0 0 33 62" fill="none" xmlns="http://www.w3.org/2000/svg">
<path d="M30.7506 7.3258H22.7561V12.1882C22.7561 12.3315 22.6992 12.4689 22.5977 12.5702C22.4963 12.6715 22.3587 12.7284 22.2152 12.7284C22.0718 12.7284 21.9342 12.6715 21.8328 12.5702C21.7313 12.4689 21.6743 12.3315 21.6743 12.1882V7.3258H21.2524C20.6203 7.32532 20.0067 7.11216 19.5107 6.7207C19.5107 6.78553 19.5107 6.84496 19.5107 6.90439V13.809H32.4923V6.90439C32.4923 6.84496 32.4923 6.78553 32.4923 6.7207C31.9963 7.11216 31.3828 7.32532 30.7506 7.3258V7.3258Z" fill="#A5593C"/>
<path d="M29.6797 0.842773H22.3234C21.9541 0.842773 21.5883 0.915439 21.2471 1.05662C20.9058 1.1978 20.5957 1.40474 20.3346 1.66561C20.0734 1.92648 19.8662 2.23618 19.7248 2.57703C19.5835 2.91787 19.5107 3.28319 19.5107 3.65212V4.50573C19.5122 4.96667 19.6961 5.40832 20.0224 5.73426C20.3488 6.0602 20.791 6.24394 21.2524 6.24536H30.7506C31.2121 6.24394 31.6543 6.0602 31.9806 5.73426C32.307 5.40832 32.4909 4.96667 32.4923 4.50573V3.65212C32.4923 2.90703 32.196 2.19247 31.6685 1.66561C31.141 1.13876 30.4256 0.842773 29.6797 0.842773V0.842773Z" fill="#A5593C"/>
<path d="M21.0143 21.3727H13.0198V26.2349C13.0198 26.3782 12.9628 26.5156 12.8614 26.6169C12.76 26.7182 12.6224 26.7752 12.4789 26.7752C12.3355 26.7752 12.1979 26.7182 12.0964 26.6169C11.995 26.5156 11.938 26.3782 11.938 26.2349V21.3727H11.5161C10.884 21.3722 10.2704 21.159 9.77441 20.7676C9.77441 20.8324 9.77441 20.8918 9.77441 20.9513V27.1966C9.77584 27.6575 9.9598 28.0991 10.2861 28.4251C10.6124 28.751 11.0546 28.9347 11.5161 28.9362H21.0143C21.4758 28.9347 21.918 28.751 22.2443 28.4251C22.5706 28.0991 22.7546 27.6575 22.756 27.1966V20.9513C22.756 20.8918 22.756 20.8324 22.756 20.7676C22.26 21.159 21.6465 21.3722 21.0143 21.3727V21.3727Z" fill="#A5593C"/>
<path d="M23.772 20.292L23.8152 20.6594C23.8152 20.7728 23.8152 20.8593 23.8152 20.9511V27.1965C23.8189 27.8277 23.6071 28.4413 23.2148 28.9362H30.7496C31.2111 28.9347 31.6532 28.751 31.9796 28.4251C32.3059 28.0991 32.4898 27.6575 32.4913 27.1965V20.292H23.772Z" fill="#A5593C"/>
<path d="M22.6318 14.8896C23.0132 15.2517 23.3167 15.6875 23.5241 16.1705C23.7315 16.6535 23.8383 17.1735 23.838 17.699V18.5527C23.8333 18.7756 23.8006 18.997 23.7407 19.2118H32.4924V14.8896H22.6318Z" fill="#A5593C"/>
<path d="M2.69956 3.00381C2.8414 2.99177 2.98228 3.03607 3.09163 3.12709C3.20099 3.21811 3.27001 3.34853 3.28374 3.49004L5.29048 22.4532H8.69274V20.9512C8.68738 20.8613 8.68738 20.7711 8.69274 20.6811L8.8496 19.5087C8.74225 19.2015 8.68918 18.8779 8.69274 18.5525V17.6989C8.69392 16.7805 9.0204 15.8921 9.61438 15.1911C10.2084 14.49 11.0315 14.0215 11.9381 13.8684L13.0199 3.70615C13.0255 3.61619 13.0255 3.52598 13.0199 3.43602C13.0199 3.09547 12.9528 2.75825 12.8223 2.44363C12.6918 2.129 12.5006 1.84312 12.2595 1.60232C12.0184 1.36151 11.7322 1.1705 11.4172 1.04017C11.1022 0.90985 10.7646 0.842773 10.4236 0.842773H2.63466C1.94607 0.842773 1.28569 1.11599 0.798781 1.60232C0.311877 2.08865 0.0383367 2.74825 0.0383367 3.43602C0.032794 3.52598 0.032794 3.61619 0.0383367 3.70615L2.01262 22.2911C2.03017 22.458 2.0646 22.6227 2.11539 22.7827C2.51039 22.5676 2.95286 22.4544 3.40273 22.4532H4.20327L2.20194 3.5981C2.1945 3.52625 2.20157 3.45364 2.22272 3.38457C2.24386 3.3155 2.27866 3.25136 2.32506 3.19596C2.37145 3.14055 2.4285 3.095 2.49283 3.06199C2.55715 3.02899 2.62745 3.00921 2.69956 3.00381V3.00381Z" fill="#A5593C"/>
<path d="M8.69381 27.1966V23.5337H3.40381C2.94232 23.5351 2.50014 23.7189 2.17382 24.0448C1.84749 24.3707 1.66354 24.8124 1.66211 25.2733V26.1269C1.66211 26.4959 1.73486 26.8612 1.87621 27.202C2.01756 27.5429 2.22474 27.8526 2.48592 28.1134C2.74711 28.3743 3.05717 28.5812 3.39842 28.7224C3.73967 28.8636 4.10542 28.9363 4.47479 28.9363H8.58563C8.80451 28.9361 9.02252 28.9089 9.23471 28.8552C8.88244 28.3739 8.69297 27.7929 8.69381 27.1966V27.1966Z" fill="#A5593C"/>
<path d="M19.9433 14.8896H12.5871C12.2177 14.8896 11.852 14.9623 11.5107 15.1035C11.1695 15.2447 10.8594 15.4516 10.5982 15.7125C10.337 15.9734 10.1299 16.2831 9.98852 16.6239C9.84717 16.9647 9.77441 17.3301 9.77441 17.699V18.5526C9.77584 19.0135 9.9598 19.4552 10.2861 19.7811C10.6124 20.1071 11.0546 20.2908 11.5161 20.2922H21.0143C21.4758 20.2908 21.918 20.1071 22.2443 19.7811C22.5706 19.4552 22.7546 19.0135 22.756 18.5526V17.699C22.756 17.3301 22.6833 16.9647 22.5419 16.6239C22.4006 16.2831 22.1934 15.9734 21.9322 15.7125C21.671 15.4516 21.361 15.2447 21.0197 15.1035C20.6785 14.9623 20.3127 14.8896 19.9433 14.8896V14.8896Z" fill="#A5593C"/>
<path d="M16.2629 32.3206V60.3461M16.2629 60.3461L13.5938 56.3425M16.2629 60.3461L18.7268 56.3425" stroke="#A5593C" stroke-width="0.788665" stroke-dasharray="3.15 3.15"/>
</svg>
