<svg width="26" height="25" viewBox="0 0 26 25" fill="none" xmlns="http://www.w3.org/2000/svg">
<path d="M13.4309 0.143959C6.65394 -0.00164653 0.969463 5.45886 0.821362 12.1982C0.672389 18.9938 6.08622 24.6437 12.8899 24.7925C12.9811 24.7945 13.0731 24.7954 13.164 24.7954C13.1643 24.7954 13.1643 24.7954 13.1649 24.7954C19.8201 24.7954 25.3533 19.3868 25.4994 12.7386C25.6481 5.94266 20.2342 0.292755 13.4309 0.143959ZM20.3336 9.0726L10.4732 17.0682C10.3422 17.1732 10.1808 17.2303 10.0158 17.2303C10.0007 17.2306 9.97228 17.2291 9.95689 17.228C9.94701 17.2271 9.9322 17.2257 9.92233 17.2245C9.73241 17.1996 9.55643 17.0983 9.43969 16.9469L5.96425 12.3803C5.84693 12.226 5.79669 12.0355 5.82283 11.8432C5.84896 11.6512 5.94886 11.4809 6.10335 11.3637C6.40855 11.1328 6.89032 11.1984 7.12118 11.5044L10.1393 15.4703L19.4188 7.94634C19.7232 7.7024 20.1988 7.75403 20.441 8.05336C20.6919 8.36517 20.6434 8.82171 20.3336 9.0726Z" fill="#A5593C"/>
</svg>
