<svg width="42" height="54" viewBox="0 0 42 54" fill="none" xmlns="http://www.w3.org/2000/svg">
<path d="M20.7747 15.7705C10.2763 15.7705 -1.74209 19.4258 0.55468 34.5845C1.27601 39.3454 3.41651 44.2508 5.48907 47.9903C7.33741 51.3252 9.41617 53.3986 14.6542 53.3986H26.8951C32.1333 53.3986 34.2119 51.3252 36.0603 47.9903C38.1328 44.2508 40.2733 39.3454 40.9946 34.5846C43.2914 19.4258 31.273 15.7705 20.7747 15.7705ZM39.3496 34.2117C38.5532 38.8473 35.9427 43.5017 34.4575 45.8636C32.8246 48.4596 31.396 49.6179 27.2422 49.6179H14.307C10.1532 49.6179 8.72455 48.4596 7.09244 45.8638C5.6072 43.5026 2.99733 38.85 2.19964 34.2114C1.46315 29.9307 2.25201 26.5695 4.54323 24.2213C8.50804 20.1579 16.4141 19.5511 20.7746 19.5511C25.1352 19.5511 33.042 20.1579 37.006 24.2213C39.2972 26.5695 40.0861 29.9307 39.3496 34.2117Z" fill="#292929"/>
<path d="M27.1336 13.5673V2.92501C27.1336 2.31229 26.8902 1.72467 26.4569 1.29141C26.0237 0.858156 25.4361 0.614751 24.8233 0.614746H17.0719C16.4592 0.614762 15.8716 0.858171 15.4384 1.29143C15.0051 1.72468 14.7617 2.3123 14.7617 2.92501V13.5167C18.8669 12.9421 23.0333 12.9592 27.1336 13.5673Z" fill="#292929"/>
<path d="M4.41895 31.6839C4.41895 31.6839 4.50744 33.0443 4.63614 33.7923C5.36171 38.0104 7.79811 42.3416 9.18596 44.5483C10.3474 46.3962 10.9523 47.1459 14.3073 47.1459H27.2424C30.5975 47.1459 31.2023 46.3959 32.3651 44.5473C33.7523 42.3419 36.1887 38.0117 36.9136 33.7927C37.0423 33.0445 37.1308 31.6839 37.1308 31.6839C26.2132 28.46 13.9638 34.3565 4.41895 31.6839Z" fill="#292929"/>
</svg>
