<svg width="53" height="53" viewBox="0 0 53 53" fill="none" xmlns="http://www.w3.org/2000/svg">
<path d="M49.9715 16.1089C48.6637 13.0169 46.792 10.2405 44.4072 7.85626C42.0224 5.47202 39.2465 3.59919 36.1545 2.29189C32.953 0.937365 29.5529 0.251465 26.0474 0.251465C22.5436 0.251465 19.1429 0.937941 15.9415 2.29189C12.8494 3.59919 10.073 5.47145 7.68878 7.85626C5.30454 10.2405 3.43171 13.0169 2.12441 16.1089C0.769884 19.3104 0.0839844 22.7105 0.0839844 26.2155C0.0839844 29.721 0.77046 33.1205 2.12441 36.3225C3.43171 39.414 5.30397 42.191 7.68878 44.5747C10.073 46.96 12.8494 48.8312 15.9415 50.139C19.1423 51.4935 22.543 52.18 26.0474 52.18C29.5529 52.18 32.9536 51.4935 36.1545 50.139C39.2465 48.8312 42.0224 46.9595 44.4072 44.5747C46.792 42.191 48.6637 39.414 49.9715 36.3225C51.3261 33.1205 52.012 29.721 52.012 26.2155C52.012 22.7105 51.3261 19.3104 49.9715 16.1089ZM38.8013 10.1956L38.7495 10.1639C38.6384 10.0971 38.4748 9.95427 38.3919 9.85291L38.1264 9.52465C38.0544 9.43481 37.9905 9.25455 37.9905 9.13937V8.68268C37.9905 8.61069 38.0504 8.5508 38.1224 8.5508H38.6061C38.6827 8.58766 38.9021 8.73509 39.0783 8.86409C39.1682 8.92801 39.2649 9.08466 39.2822 9.19235L39.2937 9.26146C39.3197 9.42387 39.4164 9.65653 39.5108 9.79129L39.637 9.96752C39.7291 10.0971 39.899 10.2751 40.024 10.3724L40.2411 10.5405C40.3378 10.6166 40.4703 10.7813 40.5244 10.8936C40.5527 10.9529 40.8078 11.4827 40.9541 11.6647C41.09 11.8352 41.2541 12.0719 41.2553 12.0742C41.3226 12.1709 41.3825 12.361 41.3825 12.479V12.5844C41.3825 12.6414 41.3497 12.6616 41.299 12.646L40.7502 12.4813C40.6367 12.4468 40.4743 12.3356 40.4018 12.2423L39.9865 11.7096C39.8852 11.58 39.6917 11.4211 39.5443 11.3468L39.1688 11.1585C39.0887 11.1182 39.0259 11.0007 39.0363 10.912L39.0599 10.7219C39.0835 10.5279 38.9701 10.2964 38.8013 10.1956ZM36.997 10.4841L36.8911 10.6252C36.8214 10.7185 36.6619 10.8279 36.549 10.859L35.9316 11.0329C35.8999 11.0422 35.8585 11.0468 35.8136 11.0468C35.7145 11.0468 35.6097 11.0237 35.5458 10.9892L35.2354 10.8204C35.1576 10.7778 35.0574 10.7548 34.9543 10.7548C34.8397 10.7548 34.7303 10.7824 34.6474 10.8325L34.3963 10.9828C34.3692 10.999 34.3335 11.0082 34.2949 11.0082C34.2362 11.0082 34.1791 10.9863 34.144 10.9517L33.4264 10.2347C33.3556 10.1627 33.3084 10.0073 33.3262 9.9082L33.4374 9.33633C33.4575 9.23209 33.56 9.08869 33.6522 9.03571L33.6873 9.0167C33.7489 8.98157 33.8503 8.95911 33.9448 8.95911C33.9908 8.95911 34.0323 8.9643 34.0651 8.97408L34.1239 8.99194C34.2102 9.01843 34.3266 9.0334 34.4412 9.0334C34.5051 9.0334 34.5984 9.0288 34.6819 9.00634C34.709 8.99885 34.7407 8.99539 34.7741 8.99539C34.8604 8.99539 34.9336 9.01901 34.963 9.04089C35.0562 9.10827 35.2342 9.22575 35.3597 9.3035L35.6396 9.47627C35.7542 9.54711 35.9368 9.68532 36.0347 9.77805L36.306 10.0332C36.4252 10.1449 36.6388 10.2756 36.7943 10.3298L36.9677 10.3902C36.9936 10.3994 37.0103 10.4127 37.0149 10.4282C37.0195 10.4421 37.0126 10.4634 36.997 10.4841ZM26.0474 50.8618C19.2212 50.8618 13.0349 48.0715 8.56703 43.5726C8.55263 43.458 8.5342 43.3382 8.5175 43.2507L8.40578 42.6615C8.37813 42.5193 8.33494 42.2872 8.30902 42.1443L8.19269 41.5039C8.1639 41.3479 8.08845 41.1146 8.01935 40.9735L7.82757 40.5773C7.78207 40.484 7.78265 40.3136 7.82987 40.2208L8.01531 39.8488C8.06311 39.7526 8.20076 39.642 8.30384 39.615L8.40002 39.5896C8.59122 39.5401 8.76053 39.3466 8.78587 39.1508L8.98225 37.6177C9.00241 37.4588 8.99262 37.2106 8.95922 37.0539L8.80545 36.3306C8.77551 36.1901 8.73116 35.9609 8.7064 35.8181L8.63729 35.4155C8.61713 35.2986 8.6442 35.1022 8.6943 34.9957L9.10262 34.1278C9.16482 33.9953 9.2679 33.7828 9.33125 33.6573L9.54318 33.2323C9.6169 33.0837 9.67507 32.8389 9.67507 32.6736V31.5927C9.67507 31.375 9.49826 31.197 9.27942 31.197H9.12162C9.01335 31.197 8.84577 31.1256 8.7709 31.0467L8.5296 30.7945C8.42651 30.6879 8.25547 30.5198 8.1472 30.4201L7.84945 30.1448C7.72564 30.0308 7.49873 29.9156 7.33345 29.8828L6.63776 29.7469C6.53237 29.7267 6.38493 29.6236 6.3285 29.5321L6.31352 29.5079C6.22944 29.3703 6.06589 29.1837 5.94034 29.084L5.42951 28.6751C5.30397 28.5744 5.08685 28.4551 4.93539 28.4022L4.7488 28.3377C4.67335 28.3112 4.62037 28.2202 4.63534 28.1424L4.66759 27.9743C4.67393 27.9432 4.72058 27.6823 4.63937 27.5498C4.64225 27.5297 4.65665 27.4876 4.69178 27.4416C4.79429 27.3085 4.8133 27.0736 4.7367 26.895L4.70733 26.8265C4.6578 26.7107 4.61403 26.5236 4.61403 26.4262C4.61403 26.2892 4.55126 26.0674 4.47063 25.9217L4.06577 25.1852C3.98457 25.0372 3.80547 24.8563 3.65804 24.774L3.43228 24.6467C3.34129 24.5954 3.24281 24.4549 3.22668 24.3518L2.8869 22.2101C2.86099 22.0442 2.7579 21.8133 2.65424 21.6819L1.98907 20.8527C3.11266 15.81 5.78542 11.3445 9.47984 7.98411L10.05 7.81307C10.2032 7.76642 10.4255 7.657 10.5556 7.5637L11.0066 7.23947C11.0958 7.17554 11.2749 7.13235 11.3838 7.14963L11.9879 7.24407C12.163 7.27114 12.4146 7.21298 12.5598 7.11104L13.1829 6.67508C13.3136 6.58294 13.491 6.41017 13.5854 6.28116L14.4337 5.12475C14.5138 5.01533 14.6664 4.84486 14.7666 4.75272L15.2573 4.30121C15.3454 4.22001 15.4191 4.09274 15.46 3.96316C16.5606 3.43736 17.7049 2.99103 18.8878 2.63109L18.8123 2.6979C18.7 2.79695 18.5284 2.97145 18.4299 3.08548L17.5419 4.12614C17.429 4.25859 17.4601 4.36802 17.4791 4.40891C17.4981 4.44922 17.5603 4.54424 17.7354 4.54424H18.0159C18.1984 4.54424 18.4311 4.44461 18.5566 4.31215L18.7956 4.06106C18.8768 3.97583 19.0496 3.88023 19.1659 3.85719L20.0592 3.67866C20.2054 3.64987 20.4404 3.59112 20.5827 3.54793L21.7563 3.19318C21.8997 3.14941 22.1278 3.06532 22.2649 3.00543L23.7507 2.35409C23.8624 2.30513 24.0674 2.27231 24.189 2.28382L25.1404 2.37424C25.293 2.38922 25.5406 2.38576 25.6932 2.36733L27.4895 2.14964C27.6513 2.13006 27.8874 2.05231 28.0302 1.97111L28.5186 1.69352C29.8581 1.82713 31.1654 2.06959 32.4342 2.40995C32.4221 2.43068 32.4082 2.45026 32.3973 2.46984C32.3161 2.60575 32.2205 2.83093 32.1779 2.98297C32.152 3.078 32.0408 3.18799 31.9452 3.21448L31.7517 3.26689C31.6573 3.29281 31.5075 3.25307 31.439 3.18396L31.3549 3.09988C31.2253 2.9703 30.9892 2.87816 30.8072 2.88449L30.3845 2.90062C30.225 2.90638 29.9831 2.9559 29.8334 3.01292L29.7274 3.05381C29.6249 3.09297 29.4383 3.09066 29.337 3.04805L29.1895 2.987C29.0571 2.93114 28.8388 2.83842 28.7058 2.7814L28.628 2.74685C28.4449 2.66853 28.1938 2.71863 28.0544 2.86146L27.9294 2.99103C27.8281 3.097 27.6663 3.27438 27.5695 3.38668L27.3852 3.60034C27.2965 3.70342 27.1456 3.85201 27.0558 3.92342C27.0166 3.95509 26.9285 3.94703 26.8692 3.88771C26.856 3.87389 26.7321 3.7541 26.5767 3.7541C26.3837 3.7541 25.961 4.17451 25.9564 4.17912C25.8717 4.26435 25.7975 4.43712 25.7825 4.47053C25.7116 4.64157 25.7209 4.89439 25.8032 5.05852L25.813 5.07983C25.8902 5.23417 26.0612 5.4104 26.2017 5.48008C26.3354 5.54689 26.5697 5.5993 26.7345 5.5993H26.8404C26.8796 5.5993 26.9032 5.61139 26.909 5.62003C26.9124 5.62348 26.9101 5.63212 26.9078 5.63673C26.883 5.71217 26.7794 5.8072 26.6964 5.83311C26.5122 5.88955 26.3745 6.05714 26.3745 6.223C26.3745 6.3209 26.3526 6.51613 26.3256 6.64917L26.3233 6.65953C26.3031 6.7632 26.1989 6.90199 26.1061 6.95152L26.0445 6.98434C25.8988 7.06266 25.7093 7.22853 25.6137 7.36271L25.5682 7.42606C25.5009 7.51993 25.3627 7.5971 25.2838 7.60344C25.2146 7.60804 25.0897 7.55045 25.0344 7.4681C24.971 7.37308 24.9163 7.18591 24.9163 7.0667V6.89105C24.9163 6.72116 24.842 6.47697 24.747 6.3353L24.6883 6.24661C24.6186 6.14295 24.5391 5.94253 24.519 5.81872L24.4994 5.70469C24.4642 5.49679 24.2725 5.33438 24.0623 5.33438H23.9563C23.7582 5.33438 23.5463 5.48008 23.476 5.66553L23.3418 6.01683C23.3061 6.11127 23.1834 6.21897 23.0844 6.242L22.5482 6.36755C22.3651 6.41074 22.1704 6.57257 22.0944 6.74477L21.8145 7.3869C21.7684 7.49114 21.7736 7.59941 21.8278 7.68234C21.8819 7.76584 21.9781 7.81307 22.0933 7.81307H22.3046C22.4699 7.81307 22.7037 7.76008 22.8379 7.69385C22.8552 7.68464 22.8707 7.68349 22.884 7.68982C22.9018 7.69846 22.9168 7.71977 22.9237 7.74857C22.9669 7.92191 23.1218 8.11657 23.2848 8.2018L23.2929 8.20641C23.3833 8.25421 23.4789 8.38263 23.4921 8.47535C23.5054 8.57095 23.4587 8.69074 23.4086 8.72933C23.2715 8.8376 23.2232 9.06738 23.2986 9.25167C23.3481 9.37491 23.4178 9.59261 23.4495 9.72622L23.4691 9.8103C23.495 9.91857 23.4697 10.1075 23.4167 10.2059L23.3815 10.2699C23.3297 10.3655 23.1869 10.4795 23.0821 10.5094L22.7164 10.612C22.5995 10.6454 22.3933 10.6477 22.2758 10.6171L21.6965 10.468C21.5024 10.4179 21.2657 10.5054 21.158 10.6672C21.0664 10.8037 20.995 11.0445 20.995 11.2149V11.7067C20.995 11.8991 21.1194 12.1202 21.283 12.2204L21.6677 12.4554C21.8082 12.5412 22.0466 12.6224 22.2096 12.6397L22.9249 12.7157C23.1005 12.7347 23.3487 12.6679 23.4915 12.5637L24.041 12.1623C24.1527 12.0805 24.3496 11.9538 24.4706 11.8864L25.0747 11.5472C25.2233 11.4631 25.3989 11.2783 25.4755 11.1262L25.5562 10.9656C25.5988 10.8815 25.7232 10.8083 25.8147 10.8112L26.272 10.8279C26.4246 10.8337 26.6705 10.8181 26.8214 10.7945L26.9677 10.7715C27.0869 10.753 27.2873 10.779 27.3962 10.8268L27.4762 10.8613C27.5718 10.9039 27.6818 11.0335 27.7066 11.1349L27.7187 11.1856C27.7613 11.3572 27.911 11.5674 28.0573 11.6653L28.3568 11.8651C28.4875 11.9521 28.7075 12.0603 28.8572 12.111L28.9787 12.1525C29.0778 12.1865 29.2005 12.3068 29.235 12.4047L29.2454 12.4347C29.2995 12.5885 29.4285 12.8027 29.5402 12.9225L29.603 12.9922C29.6808 13.0745 29.781 13.1148 29.8806 13.1027C29.9797 13.0901 30.0672 13.0267 30.1213 12.9277L30.2912 12.6178C30.3465 12.5165 30.4882 12.3898 30.5947 12.3471L30.8084 12.2625C30.8792 12.2337 30.9748 12.2682 31.0111 12.3368L31.3618 12.9962C31.4361 13.1361 31.5824 13.3337 31.6947 13.4465L31.9199 13.6717C31.9988 13.75 32.1007 13.7869 32.1998 13.7725C32.3011 13.7581 32.3875 13.6936 32.4405 13.5963L32.6104 13.2853C32.6645 13.188 32.8085 13.0647 32.9139 13.0279L33.1183 12.9559C33.2105 12.923 33.3637 12.9518 33.4391 13.0158L33.7403 13.272C33.8722 13.3843 34.1118 13.4771 34.2845 13.4834L34.7424 13.4995C34.8875 13.5047 35.1271 13.5093 35.2745 13.5093H35.521C35.6719 13.5093 35.9161 13.4892 36.0652 13.4644L36.3895 13.4097C36.4793 13.3953 36.6043 13.4523 36.6526 13.5306L36.8709 13.8888C36.9325 13.9919 36.9878 14.1883 36.9878 14.3087V14.9416C36.9878 15.0781 36.9688 15.3079 36.9464 15.4438L36.8922 15.7674C36.8709 15.8993 36.8047 16.1112 36.7482 16.2316L36.6907 16.3526C36.6555 16.4268 36.6377 16.5184 36.6342 16.6111L36.4027 16.3128C36.3048 16.1901 36.1326 16.018 36.0099 15.9212L35.931 15.8602C35.8164 15.7697 35.635 15.711 35.4674 15.711C35.4306 15.711 35.3931 15.715 35.3592 15.7214L34.9624 15.7974C34.8846 15.8124 34.7654 15.8221 34.652 15.8221C34.588 15.8221 34.5293 15.8193 34.4832 15.8129L33.8826 15.7381C33.753 15.7214 33.5485 15.6569 33.4328 15.5964L32.7037 15.2105C32.6138 15.1627 32.4912 15.1357 32.3662 15.1357C32.2729 15.1357 32.1859 15.1506 32.1151 15.1789L31.7258 15.3349C31.5277 15.4133 31.4142 15.6361 31.4661 15.8423L31.4782 15.8936C31.5075 16.0082 31.4983 16.1971 31.4592 16.2984C31.4355 16.3606 31.3434 16.4038 31.2668 16.3865L30.8677 16.2938C30.7358 16.2639 30.5193 16.1907 30.3966 16.1337L30.0321 15.9667C29.9129 15.9126 29.7309 15.7899 29.6353 15.7006L29.4573 15.5336C29.3347 15.4184 29.1089 15.3004 28.9442 15.2664L28.791 15.2341C28.6591 15.2065 28.4432 15.1362 28.3211 15.081L28.0982 14.9807C28.0677 14.9675 28.0452 14.9433 28.0354 14.9139C28.025 14.884 28.0285 14.8517 28.0446 14.8218L28.0775 14.7596C28.1564 14.6127 28.2168 14.368 28.2168 14.2021V14.0311C28.2168 13.8819 28.2088 13.6706 28.2001 13.5594C28.1834 13.3826 28.002 13.2438 27.7872 13.2438H27.4359C27.2862 13.2438 27.0431 13.2576 26.8957 13.2744L25.8383 13.3918C25.7998 13.3959 25.7514 13.3982 25.6984 13.3982C25.5769 13.3982 25.445 13.3861 25.3592 13.3694L25.0321 13.3008C24.9912 13.2922 24.9463 13.2882 24.8973 13.2882C24.7401 13.2882 24.5662 13.3337 24.4533 13.4034L24.269 13.5174C24.1429 13.5951 23.9431 13.7287 23.8233 13.814L23.3741 14.1353C23.309 14.182 23.1932 14.2136 23.0913 14.2136C23.0608 14.2136 23.0331 14.2113 23.0107 14.2056L22.2223 14.0138C22.1889 14.0052 22.1537 14.0017 22.1169 14.0017C21.9447 14.0017 21.769 14.0939 21.6815 14.2309L21.4039 14.6652C21.3382 14.7665 21.1868 14.9019 21.0779 14.9543L20.604 15.1823C20.4467 15.2583 20.2671 15.4432 20.1962 15.6027L19.9889 16.0698C19.9336 16.193 19.8202 16.3906 19.7407 16.5006L19.4884 16.8478C19.4107 16.9544 19.2546 17.1087 19.1487 17.1853L18.3107 17.7906C18.1794 17.8856 18.0078 18.0664 17.9208 18.2029L17.3962 19.0242C17.315 19.1514 17.1992 19.368 17.1388 19.5056L16.5778 20.7807C16.4909 20.9776 16.5542 21.2045 16.7224 21.2955C16.7662 21.3197 16.7949 21.4095 16.7667 21.4902L16.731 21.591C16.6786 21.739 16.6268 21.9774 16.613 22.134L16.484 23.5778C16.4707 23.7253 16.4604 23.9666 16.4604 24.1157V25.1696C16.4604 25.3735 16.6135 25.5774 16.8088 25.6326L17.0403 25.6989C17.129 25.7242 17.2223 25.8313 17.2349 25.924L17.2689 26.1746C17.2908 26.3352 17.3714 26.5719 17.4532 26.7125L17.9623 27.5913C18.0429 27.7301 18.2019 27.9207 18.3234 28.0244L19.1176 28.7022C19.2327 28.8007 19.4337 28.9429 19.5662 29.0189L20.0235 29.2833C20.1006 29.3282 20.2014 29.3518 20.3045 29.3518C20.4191 29.3518 20.5274 29.323 20.6109 29.2706L20.8326 29.1313C20.9069 29.084 21.0411 29.0489 21.1511 29.0489C21.1776 29.0489 21.2006 29.0518 21.2213 29.0552L21.4759 29.1013C21.5116 29.1082 21.5484 29.1117 21.5859 29.1117C21.7143 29.1117 21.8761 29.0708 21.9533 28.9556C21.9556 28.955 21.9596 28.955 21.9648 28.955C21.9971 28.955 22.038 28.9706 22.0754 28.9965L22.4515 29.2574C22.5586 29.3322 22.7204 29.3783 22.8748 29.3783C22.9318 29.3783 22.9842 29.372 23.0308 29.3605L24.9111 28.8623C25.0234 28.8329 25.24 28.8329 25.3523 28.8635L25.7577 28.9717C25.8591 28.9994 25.9915 29.1117 26.0359 29.2073L26.2029 29.5724C26.2806 29.7417 26.477 29.9018 26.6584 29.945L26.7425 29.9652C26.8957 30.0009 27.1295 30.0291 27.277 30.0291C27.3841 30.0291 27.5638 30.089 27.6582 30.1581L27.8638 30.3067C27.9473 30.3666 28.0222 30.5151 28.0222 30.6182V30.7939C28.0222 30.9304 28.0055 31.1625 27.9842 31.2984L27.9243 31.6911C27.8949 31.8783 27.9761 32.1179 28.1132 32.2486L28.1898 32.3223C28.2571 32.388 28.2934 32.5302 28.264 32.6206L28.2508 32.6644C28.1909 32.8487 28.252 33.0992 28.389 33.2351L29.1406 33.9878C29.2477 34.095 29.4331 34.2539 29.5546 34.3432L29.6572 34.418C29.7407 34.4791 29.8155 34.6282 29.8155 34.7313V35.5393C29.8155 35.6931 29.8414 35.9384 29.8743 36.0882L30.0442 36.8743C30.0678 36.9808 30.0338 37.1611 29.9745 37.2538L29.4884 38.0065C29.402 38.1395 29.3007 38.3635 29.2581 38.5173L29.0139 39.3806C28.9667 39.5488 28.9868 39.8062 29.0599 39.9646L29.5063 40.9275C29.565 41.0542 29.6479 41.2707 29.6883 41.402L29.8489 41.918C29.8869 42.0413 29.9106 42.2543 29.9008 42.3839L29.8714 42.7721C29.8581 42.9379 29.9019 43.1873 29.9704 43.3393L30.2112 43.8778C30.2716 44.0108 30.3742 44.2274 30.4392 44.3587L30.5901 44.6605C30.6466 44.7716 30.6949 44.9778 30.6949 45.101V45.488C30.6949 45.6694 30.7917 45.9033 30.919 46.0311L30.9334 46.0444C31.0618 46.1728 31.2944 46.2695 31.4764 46.2695H31.7575C31.9147 46.2695 32.1577 46.2361 32.3098 46.1941C32.3616 46.1797 33.5727 45.8416 33.6798 45.8059C33.7881 45.7697 34.9578 45.0302 35.4548 44.714C35.5884 44.6288 35.7755 44.4675 35.8775 44.346L36.8698 43.1885C36.9585 43.0859 37.1237 42.9287 37.2309 42.8464L37.9035 42.3252C38.0383 42.2209 38.1869 42.0136 38.2421 41.8535L38.4224 41.3329C38.4742 41.182 38.5157 40.9373 38.5157 40.7771V40.6009C38.5157 40.4973 38.5911 40.3441 38.6718 40.2807L39.0282 40.0054C39.1463 39.9133 39.3306 39.7538 39.4377 39.6507L40.3252 38.7874C40.4323 38.682 40.5964 38.5012 40.6886 38.3825L41.242 37.6736C41.3491 37.5365 41.4332 37.2947 41.4332 37.1213V36.4533C41.4332 36.3007 41.4085 36.0553 41.3802 35.9056L41.3036 35.5094C41.2777 35.374 41.2483 35.1419 41.2409 35.0043L41.2029 34.3708C41.1948 34.2528 41.2432 34.0598 41.3042 33.9579L41.629 33.4252C41.6976 33.3106 41.8381 33.1355 41.9337 33.0422L42.5735 32.4248C42.7042 32.2981 42.8039 32.0655 42.8039 31.8835V31.2154C42.8039 31.1112 42.8782 30.9586 42.9599 30.8952L43.3164 30.6194C43.4402 30.5232 43.6136 30.3527 43.7115 30.2301L44.3674 29.4123C44.4665 29.2862 44.5869 29.0685 44.6387 28.917L44.9255 28.0802C44.9727 27.942 45.0482 27.7168 45.0931 27.5775L45.3517 26.7787C45.4012 26.6267 45.4392 26.383 45.4392 26.2235V26.0127C45.4392 25.7916 45.2584 25.6205 45.0355 25.6372L44.6116 25.6683C44.4532 25.6799 44.2137 25.7346 44.0651 25.7922L43.5376 25.9972C43.404 26.0496 43.1834 26.1308 43.0469 26.1792L42.8759 26.2396C42.8465 26.2506 42.8085 26.2552 42.767 26.2552C42.6795 26.2552 42.5867 26.231 42.532 26.1924L42.3656 26.0749C42.2758 26.011 42.2061 25.8762 42.2061 25.802C42.2061 25.643 42.1162 25.4219 41.997 25.2883C41.8888 25.1679 41.6924 25.0159 41.5484 24.9416L41.1389 24.7325C41.0364 24.6801 40.9074 24.5413 40.8625 24.4353L40.7537 24.1819C40.6995 24.0564 40.6275 23.8381 40.5976 23.7045L40.4703 23.1637C40.434 23.0094 40.3344 22.8136 40.2117 22.737C40.1691 22.7094 40.0701 22.5913 40.0125 22.4669L39.7378 21.857C39.6813 21.7344 39.6116 21.519 39.5834 21.3865L39.4798 20.8838C39.4458 20.7167 39.3243 20.4927 39.2039 20.3723L39.0138 20.1823C38.9206 20.0879 38.7846 19.911 38.719 19.7953L38.6988 19.7607C38.6268 19.6346 38.5076 19.4284 38.4333 19.3029L37.6472 17.9645C37.5896 17.8683 37.4998 17.7318 37.4198 17.6201H37.9093C38.0072 17.6201 38.1431 17.6967 38.1915 17.7819L38.2755 17.9253C38.3498 18.0503 38.4713 18.2548 38.5468 18.3792L38.9079 18.9815C38.9891 19.1175 39.1452 19.3081 39.2621 19.414C39.3611 19.5033 39.8535 19.9485 40.0079 20.0285C40.0919 20.0925 40.3972 20.5705 40.6333 20.9799C40.7064 21.1066 40.8199 21.3116 40.8861 21.4378L41.4465 22.4836C41.5184 22.6166 41.6509 22.8228 41.7425 22.9438L41.8795 23.1229C41.9504 23.2156 42.012 23.3993 42.012 23.5156V23.621C42.012 23.7771 42.0391 24.0184 42.0736 24.171L42.2378 24.8874C42.2804 25.0752 42.4503 25.2623 42.6328 25.3234L43.0826 25.4725C43.139 25.4915 43.2018 25.5002 43.2669 25.5002C43.4097 25.5002 43.5594 25.4576 43.6637 25.381L44.4342 24.8143C44.5558 24.725 44.7412 24.5655 44.8483 24.459L45.2837 24.0236C45.3908 23.9165 45.5503 23.7322 45.6413 23.6118L46.0629 23.0497C46.1596 22.919 46.2685 22.6944 46.3082 22.5366L46.5996 21.3957C46.6376 21.2431 46.6682 21.0007 46.6682 20.844V20.2819C46.6682 20.1057 46.5783 19.8644 46.4614 19.7331L46.0376 19.2505C45.9373 19.1365 45.76 18.9666 45.6408 18.8715L45.3493 18.6383C45.267 18.5727 45.1639 18.5427 45.0579 18.5554C44.9531 18.5686 44.861 18.6216 44.7971 18.7063L44.66 18.8848C44.5632 19.0109 44.4452 19.2263 44.3922 19.3755C44.383 19.4031 44.3709 19.4123 44.3651 19.414C44.3594 19.4152 44.3438 19.4129 44.3214 19.3916L44.0098 19.1117C43.9234 19.034 43.8307 18.8658 43.8105 18.7506L43.7599 18.4615C43.7293 18.283 43.5934 18.0693 43.446 17.9645L42.7866 17.4963C42.6898 17.4278 42.5683 17.27 42.528 17.1582L42.4641 16.9855C42.4134 16.8455 42.3293 16.6238 42.2763 16.4908L42.2222 16.3491C42.2176 16.3393 42.2164 16.3324 42.2141 16.3255C42.221 16.3255 42.2285 16.3266 42.2378 16.3278L42.6685 16.4078C42.7808 16.4291 42.9444 16.5253 43.0169 16.614L43.1742 16.8046C43.2709 16.9215 43.442 17.0972 43.5566 17.1962L43.6861 17.308C43.8123 17.4174 44.0392 17.5291 44.2033 17.5619L44.5655 17.6339C44.698 17.6598 44.9151 17.7284 45.0401 17.7814L45.2929 17.8896C45.43 17.949 45.6598 18.0313 45.8026 18.0733L46.2466 18.2052C46.4027 18.2519 46.6538 18.2686 46.8168 18.2444L46.9976 18.2173C47.1064 18.2006 47.2867 18.2444 47.3765 18.3083L47.4405 18.3538C47.5291 18.4177 47.6305 18.575 47.6507 18.6838L47.6921 18.9038C47.7284 19.0915 47.8977 19.2862 48.0803 19.3461L48.3176 19.4256C48.4212 19.4601 48.5606 19.5805 48.609 19.6784L48.6193 19.6985C48.6809 19.8212 48.7645 20.0349 48.8036 20.1656L48.8307 20.2572C48.8647 20.3729 48.9378 20.4489 49.0322 20.4674C49.1267 20.4858 49.2234 20.442 49.2977 20.3476L49.345 20.2877L49.4135 20.6275C49.4429 20.7772 49.5149 21.0133 49.5742 21.1544L49.827 21.758C49.8788 21.8829 49.9462 22.1012 49.9733 22.2342L50.0804 22.7721C50.1109 22.9224 50.1841 23.1586 50.2445 23.2991L50.4582 23.799C50.491 23.8756 50.5417 23.9735 50.5964 24.0679C50.6569 24.7751 50.6885 25.491 50.6885 26.2143C50.6937 39.8056 39.6381 50.8618 26.0474 50.8618Z" fill="#292929"/>
<path d="M44.2304 36.3518C44.1653 36.3518 44.1008 36.3777 44.0381 36.4296L43.6724 36.729C43.5405 36.8373 43.4011 37.0515 43.355 37.2168L43.3199 37.3412C43.2894 37.4478 43.1771 37.5958 43.0826 37.6533L43.0072 37.6977C42.8811 37.7743 42.6789 37.9004 42.5563 37.9799L42.2954 38.1498C42.1618 38.2362 41.9781 38.402 41.8778 38.5258L41.6112 38.8535C41.5024 38.9894 41.4165 39.2307 41.4165 39.4047V39.5458C41.4165 39.6627 41.3561 39.8487 41.2858 39.9426L41.1056 40.1862C41.0169 40.3077 40.885 40.5127 40.8118 40.6434L40.5406 41.1318C40.4508 41.2942 40.4335 41.5464 40.5014 41.7198L40.6253 42.0383C40.6851 42.1909 40.8366 42.2928 41.0019 42.2928C41.048 42.2928 41.094 42.2848 41.1367 42.2686L41.4142 42.1678C41.5772 42.1085 41.7776 41.949 41.8709 41.8039L41.9711 41.649C42.0512 41.5263 42.1813 41.3305 42.2625 41.2142L42.5954 40.7339C42.6755 40.6169 42.816 40.4332 42.907 40.3238L43.097 40.0957C43.1995 39.9714 43.3211 39.7554 43.3735 39.6022L43.6246 38.8702C43.6672 38.7464 43.7697 38.5518 43.8497 38.4469L44.2713 37.8837C44.375 37.7461 44.4556 37.503 44.4556 37.3303V36.6277C44.4579 36.4365 44.3444 36.3518 44.2304 36.3518Z" fill="#292929"/>
</svg>
