<svg width="60" height="54" viewBox="0 0 60 54" fill="none" xmlns="http://www.w3.org/2000/svg">
<path fill-rule="evenodd" clip-rule="evenodd" d="M3.70645 16.3137L46.6339 6.57826L46.039 3.95433C45.8737 3.20745 45.1204 2.73822 44.3801 2.90342L4.14923 11.9648C3.40237 12.1301 2.93311 12.877 3.09829 13.6238C3.30314 14.516 3.5015 15.4215 3.70645 16.3137ZM3.34951 9.58548L44.0893 0.418355C46.0324 -0.0178209 47.9689 1.20485 48.4052 3.14802L52.6748 22.0176H50.1236L48.187 13.4718L5.25953 23.2073L7.9165 34.9255L8.15443 35.9633C8.24696 36.3797 8.66336 36.6506 9.08635 36.5514L9.40353 36.4788V38.9771L9.35726 38.9909C7.74463 39.3544 6.13859 38.33 5.76846 36.7239L0.606594 13.9086C0.388454 12.9369 0.547136 12.0249 1.07585 11.1789C1.60457 10.3329 2.37791 9.80414 3.34941 9.58603L3.34951 9.58548ZM13.9244 22.6983C11.935 22.6983 10.3157 24.3243 10.3157 26.3137V49.79C10.3157 51.7793 11.935 53.3987 13.9244 53.3987H55.6953C57.6847 53.3987 59.3105 51.7728 59.3105 49.79V26.3137C59.3105 24.3243 57.6847 22.6983 55.6953 22.6983H13.9244ZM54.8162 33.2072C54.8162 31.6143 54.8162 30.0215 54.8162 28.4286C54.8162 28.118 54.5716 27.8735 54.261 27.8735C50.6986 27.8735 47.1362 27.8735 43.5738 27.8735C43.2697 27.8735 43.0186 28.1246 43.0186 28.4286C43.0186 30.0215 43.0186 31.6143 43.0186 33.2072C43.0186 33.5112 43.2697 33.7624 43.5738 33.7624C47.1362 33.7624 50.6986 33.7624 54.261 33.7624C54.5584 33.7624 54.8162 33.5178 54.8162 33.2072ZM46.9379 47.6948C46.6273 47.6948 46.3761 47.4436 46.3761 47.1396V46.0293C46.3761 45.7252 46.6273 45.474 46.9379 45.474H54.2544C54.5584 45.474 54.8096 45.7252 54.8096 46.0293V47.1396C54.8096 47.4436 54.5584 47.6948 54.2544 47.6948H46.9379ZM36.7265 47.6948C36.4225 47.6948 36.1713 47.4436 36.1713 47.1396V46.0358C36.1713 45.7252 36.4225 45.4807 36.7265 45.4807H44.0496C44.3536 45.4807 44.6048 45.7318 44.6048 46.0358V47.1396C44.6048 47.4436 44.3536 47.6948 44.0496 47.6948H36.7265ZM26.5216 47.6948C26.2177 47.6948 25.9665 47.4436 25.9665 47.1396V46.0358C25.9665 45.7252 26.2177 45.4807 26.5216 45.4807H33.8449C34.1488 45.4807 34.4 45.7318 34.4 46.0358V47.1396C34.4 47.4436 34.1488 47.6948 33.8449 47.6948H26.5216ZM16.3169 47.6948C16.0129 47.6948 15.7617 47.4436 15.7617 47.1396V46.0358C15.7617 45.7252 16.0129 45.4807 16.3169 45.4807H23.6401C23.9441 45.4807 24.1952 45.7318 24.1952 46.0358V47.1396C24.1952 47.4436 23.9441 47.6948 23.6401 47.6948H16.3169Z" fill="#292929"/>
</svg>
