<svg width="50" height="50" viewBox="0 0 50 50" fill="none" xmlns="http://www.w3.org/2000/svg">
<path fill-rule="evenodd" clip-rule="evenodd" d="M30.5575 7.30969C32.1359 7.30969 33.7142 8.62497 33.7142 10.4664C33.7142 12.0447 32.1359 13.36 30.5575 13.36C28.9792 13.36 27.6639 12.0447 27.6639 10.4664C27.6639 8.62497 28.9792 7.30969 30.5575 7.30969ZM9.513 1.25939L17.4047 12.0447C18.1939 13.0969 18.4569 14.6753 17.4047 15.7275C15.3002 17.8319 14.7741 18.3581 12.6697 20.4625C18.1939 25.9867 23.455 31.5109 28.9792 36.772C31.0836 34.6676 31.6097 34.1414 33.7142 32.037C34.7664 30.9848 36.3448 31.2478 37.66 32.3L48.4454 39.9287C49.4976 40.9809 49.4976 42.8223 48.4454 43.8745C44.4995 47.8204 40.8167 49.3987 36.8709 49.3987C25.2964 49.3987 0.0429688 23.3561 0.0429688 12.5708C0.0429688 8.88803 1.88436 5.20524 5.56715 0.996338C6.61938 -0.0558879 8.72383 -0.0558879 9.513 1.25939ZM35.2925 17.3058C36.8709 17.3058 37.9231 18.3581 37.9231 19.9364C37.9231 21.2517 36.8709 22.567 35.2925 22.567C33.9772 22.567 32.662 21.2517 32.662 19.9364C32.662 18.3581 33.9772 17.3058 35.2925 17.3058ZM41.6059 3.10079C44.2365 3.10079 46.604 5.20524 46.604 8.09886C46.604 10.9925 44.2365 13.0969 41.6059 13.0969C38.7123 13.0969 36.3448 10.9925 36.3448 8.09886C36.3448 5.20524 38.7123 3.10079 41.6059 3.10079Z" fill="#292929"/>
</svg>
