<svg width="26" height="62" viewBox="0 0 26 62" fill="none" xmlns="http://www.w3.org/2000/svg">
<path d="M13.1604 9.06982C6.92943 9.06982 -0.203697 11.2368 1.15948 20.223C1.5876 23.0453 2.85802 25.9533 4.08812 28.1701C5.18514 30.1471 6.41892 31.3762 9.52778 31.3762H16.793C19.9019 31.3762 21.1356 30.1471 22.2326 28.1702C23.4627 25.9533 24.7332 23.0453 25.1613 20.223C26.5245 11.2368 19.3913 9.06982 13.1604 9.06982ZM24.1849 20.002C23.7122 22.75 22.1629 25.5092 21.2814 26.9094C20.3122 28.4484 19.4643 29.135 16.999 29.135H9.32168C6.85635 29.135 6.00843 28.4484 5.03974 26.9095C4.15823 25.5098 2.60923 22.7517 2.13579 20.0018C1.69866 17.4642 2.16687 15.4716 3.52675 14.0796C5.87993 11.6707 10.5723 11.311 13.1604 11.311C15.7484 11.311 20.4412 11.6707 22.794 14.0796C24.1538 15.4716 24.622 17.4642 24.1849 20.002Z" fill="#A5593C"/>
<path d="M16.9347 7.76379V1.45479C16.9347 1.09155 16.7903 0.743195 16.5331 0.486349C16.276 0.229504 15.9272 0.0852082 15.5635 0.0852051H10.963C10.5993 0.0852145 10.2505 0.229513 9.9934 0.486358C9.73626 0.743203 9.5918 1.09156 9.5918 1.45479V7.73379C12.0283 7.39317 14.5011 7.40328 16.9347 7.76379V7.76379Z" fill="#A5593C"/>
<path d="M3.45312 18.5034C3.45312 18.5034 3.50565 19.3099 3.58203 19.7533C4.01267 22.2539 5.45872 24.8216 6.28243 26.1298C6.97176 27.2252 7.33076 27.6697 9.32206 27.6697H16.9992C18.9905 27.6697 19.3495 27.225 20.0396 26.1292C20.863 24.8218 22.309 22.2547 22.7393 19.7535C22.8157 19.31 22.8681 18.5034 22.8681 18.5034C16.3884 16.5922 9.11815 20.0878 3.45312 18.5034Z" fill="#A5593C"/>
<path d="M13.2629 32.8184V60.8439M13.2629 60.8439L10.5938 56.8403M13.2629 60.8439L15.7268 56.8403" stroke="#A5593C" stroke-width="0.788665" stroke-dasharray="3.15 3.15"/>
</svg>
