<svg width="56" height="60" viewBox="0 0 56 60" fill="none" xmlns="http://www.w3.org/2000/svg">
<path d="M28.5749 23.4231C27.2107 23.4231 25.8773 23.8271 24.743 24.5841C23.6088 25.3411 22.7248 26.417 22.2027 27.6757C21.6807 28.9345 21.5441 30.3197 21.8103 31.656C22.0764 32.9923 22.7333 34.2198 23.6979 35.1832C24.6624 36.1466 25.8914 36.8027 27.2293 37.0686C28.5672 37.3344 29.954 37.1979 31.2143 36.6765C32.4746 36.1551 33.5517 35.2722 34.3096 34.1393C35.0675 33.0064 35.472 31.6745 35.472 30.312C35.472 28.485 34.7453 26.7327 33.4519 25.4408C32.1584 24.1489 30.4041 23.4231 28.5749 23.4231ZM28.5749 35.2327C27.6005 35.2327 26.648 34.9441 25.8378 34.4034C25.0277 33.8627 24.3962 33.0942 24.0234 32.1951C23.6505 31.2959 23.5529 30.3066 23.743 29.352C23.9331 28.3975 24.4023 27.5207 25.0913 26.8326C25.7803 26.1444 26.6581 25.6758 27.6137 25.4859C28.5694 25.296 29.56 25.3935 30.4602 25.7659C31.3604 26.1384 32.1298 26.769 32.6711 27.5782C33.2124 28.3874 33.5014 29.3388 33.5014 30.312C33.5014 31.617 32.9823 32.8686 32.0584 33.7914C31.1345 34.7142 29.8815 35.2327 28.5749 35.2327Z" fill="#191919"/>
<path d="M54.1926 15.5501C52.0643 11.8596 46.2412 10.9345 38.8514 12.519C38.5559 11.5348 38.2209 10.6688 37.8661 9.81258C38.5178 9.31173 38.9962 8.61987 39.2345 7.83387C39.4729 7.04788 39.4591 6.20712 39.1952 5.42933C38.9313 4.65154 38.4304 3.97566 37.7628 3.49635C37.0951 3.01704 36.2941 2.7583 35.4719 2.75635C34.8653 2.75868 34.2679 2.90365 33.7279 3.17953C33.0722 2.45757 32.2785 1.87403 31.3934 1.46331C30.5084 1.05259 29.55 0.823003 28.5748 0.788086C24.3183 0.788086 20.6037 5.35446 18.2882 12.519C10.9182 10.9345 5.10489 11.8694 2.95693 15.5501C0.808974 19.2307 2.95693 24.732 7.99182 30.3121C7.33167 31.0403 6.71093 31.7686 6.15916 32.487C5.76171 32.3552 5.34628 32.2855 4.92753 32.2803C3.88226 32.2803 2.8798 32.6951 2.14068 33.4333C1.40156 34.1716 0.986328 35.1728 0.986328 36.2169C0.991094 36.8122 1.13101 37.3988 1.39554 37.9323C1.66007 38.4659 2.04233 38.9325 2.51354 39.2972C2.19181 40.2399 2.06522 41.2381 2.14143 42.2311C2.21765 43.2242 2.4951 44.1914 2.95693 45.0741C4.42503 47.6131 7.64696 48.8433 11.9232 48.8433C14.0584 48.8203 16.1852 48.5729 18.2685 48.1052C20.6037 55.2697 24.3183 59.8361 28.5748 59.8361C32.8313 59.8361 36.5557 55.2697 38.8712 48.0855C40.0485 48.3446 41.2392 48.5384 42.4379 48.6662C42.6139 49.6178 43.1347 50.4714 43.9008 51.0638C44.667 51.6563 45.6247 51.9461 46.5912 51.8779C47.5577 51.8097 48.4652 51.3884 49.1404 50.6943C49.8155 50.0001 50.211 49.082 50.2514 48.115C51.8941 47.6186 53.2968 46.5363 54.1926 45.0741C56.3208 41.3934 54.1926 35.9019 49.1675 30.3121C54.1926 24.7222 56.3011 19.2307 54.1926 15.5501ZM37.4425 6.69288C37.4425 7.08217 37.3269 7.46271 37.1104 7.78639C36.8938 8.11007 36.5861 8.36235 36.226 8.51132C35.8659 8.6603 35.4697 8.69928 35.0874 8.62333C34.7052 8.54738 34.354 8.35992 34.0784 8.08466C33.8028 7.80939 33.6152 7.45868 33.5391 7.07687C33.4631 6.69507 33.5021 6.29931 33.6513 5.93966C33.8004 5.58001 34.053 5.27261 34.3771 5.05633C34.7011 4.84005 35.0821 4.72462 35.4719 4.72462C35.9945 4.72462 36.4957 4.93199 36.8653 5.30111C37.2348 5.67023 37.4425 6.17087 37.4425 6.69288ZM28.5748 2.75635C29.9714 2.82422 31.285 3.43953 32.2302 4.46874C31.7724 5.12003 31.528 5.89709 31.5307 6.69288C31.5307 7.73692 31.9459 8.73819 32.685 9.47643C33.4241 10.2147 34.4266 10.6294 35.4719 10.6294C35.6603 10.6243 35.8481 10.6046 36.0335 10.5704C36.3488 11.338 36.6444 12.145 36.9203 12.9815C34.0634 13.7397 31.2725 14.727 28.5748 15.9339C25.8731 14.7284 23.079 13.7411 20.2194 12.9815C22.2294 6.78146 25.2543 2.75635 28.5748 2.75635ZM39.4131 30.3121C39.4131 32.3984 39.3145 34.4356 39.1273 36.4039C37.5213 37.5356 35.797 38.6477 33.9939 39.6909C32.1908 40.734 30.368 41.6591 28.5748 42.4858C26.7618 41.6591 24.9488 40.7242 23.1556 39.6909C21.3624 38.6575 19.6282 37.5356 18.0222 36.4039C17.835 34.4356 17.7364 32.3984 17.7364 30.3121C17.7364 28.2257 17.835 26.1886 18.0222 24.2203C19.6479 23.0689 21.3624 21.9666 23.1556 20.9333C24.9488 19.8999 26.7815 18.965 28.5748 18.1383C30.368 18.965 32.1908 19.8901 33.9939 20.9333C35.797 21.9765 37.5213 23.0885 39.1372 24.2301C39.3145 26.2082 39.4131 28.2454 39.4131 30.3121ZM41.2162 25.7654C43.0449 27.1656 44.7795 28.6845 46.4087 30.3121C44.7886 31.9358 43.0603 33.4483 41.2359 34.8391C41.3344 33.3629 41.3837 31.8867 41.3837 30.3121C41.3837 28.7375 41.3147 27.2613 41.2162 25.7654ZM38.8317 39.002C38.5315 41.2724 38.0838 43.521 37.4917 45.7334C35.2702 45.1464 33.091 44.4099 30.969 43.529C32.2828 42.8729 33.6195 42.161 34.9792 41.3934C36.3389 40.6258 37.6231 39.8286 38.8317 39.002ZM26.2002 43.5191C24.0857 44.3984 21.9168 45.1414 19.707 45.7433C19.1159 43.5272 18.6683 41.2755 18.367 39.002C19.6019 39.8155 20.8861 40.6127 22.2196 41.3934C23.5005 42.1217 24.8503 42.8598 26.2002 43.5191ZM15.9136 34.8391C14.0885 33.4453 12.3572 31.933 10.731 30.3121C12.3562 28.69 14.0876 27.1777 15.9136 25.7851C15.8151 27.2613 15.7658 28.7375 15.7658 30.3219C15.7658 31.9064 15.8151 33.3629 15.9136 34.8391ZM18.3178 21.632C18.6343 19.354 19.0984 17.0989 19.707 14.8809C21.9241 15.476 24.0997 16.2157 26.2199 17.0952C24.8897 17.7447 23.5596 18.4631 22.2196 19.2307C20.8796 19.9984 19.5593 20.7955 18.3178 21.632ZM34.9792 19.2307C33.6392 18.4631 32.309 17.7447 30.9789 17.0952C33.0819 16.2176 35.2412 15.4811 37.4425 14.8907C38.0414 17.1027 38.4956 19.3513 38.8022 21.6222C37.6001 20.8021 36.3258 20.0049 34.9792 19.2307ZM4.68121 16.5342C6.34637 13.6605 11.3517 13.0602 17.7266 14.4183C16.9646 17.2814 16.4309 20.2003 16.1304 23.1476C13.7346 24.8782 11.478 26.7932 9.38109 28.8752C5.00636 24.0431 3.0259 19.4079 4.68121 16.5342ZM4.92753 34.2486C5.31728 34.2486 5.69828 34.364 6.02234 34.5803C6.3464 34.7966 6.59898 35.104 6.74813 35.4636C6.89728 35.8233 6.93631 36.2191 6.86027 36.6009C6.78423 36.9827 6.59655 37.3334 6.32096 37.6086C6.04536 37.8839 5.69424 38.0714 5.31198 38.1473C4.92972 38.2233 4.5335 38.1843 4.17342 38.0353C3.81333 37.8863 3.50557 37.6341 3.28904 37.3104C3.0725 36.9867 2.95693 36.6062 2.95693 36.2169C2.95693 35.6949 3.16455 35.1942 3.53411 34.8251C3.90367 34.456 4.4049 34.2486 4.92753 34.2486V34.2486ZM4.68121 44.0899C4.05129 42.8533 3.92762 41.4204 4.33635 40.0944C4.53154 40.1296 4.72922 40.1493 4.92753 40.1534C5.69242 40.1593 6.44248 39.9427 7.08624 39.5301C7.73001 39.1175 8.23965 38.5267 8.55302 37.8297C8.86639 37.1328 8.96994 36.3598 8.85104 35.6051C8.73215 34.8504 8.39594 34.1465 7.88343 33.5794C8.35638 32.9692 8.86874 32.3591 9.4205 31.7489C11.5157 33.8395 13.7761 35.7582 16.1797 37.4864C16.4673 40.4294 16.9878 43.345 17.7364 46.2058C11.3517 47.5639 6.34637 46.9636 4.68121 44.0899ZM28.5748 57.8678C25.2543 57.8678 22.2294 53.8427 20.2194 47.6427C23.0886 46.8829 25.8924 45.8956 28.6043 44.6903C31.3005 45.8927 34.0877 46.8799 36.94 47.6427C34.9299 53.823 31.8952 57.8678 28.5748 57.8678ZM46.3102 49.9947C45.9204 49.9947 45.5394 49.8793 45.2154 49.663C44.8913 49.4467 44.6387 49.1393 44.4896 48.7797C44.3404 48.42 44.3014 48.0243 44.3774 47.6425C44.4535 47.2607 44.6412 46.91 44.9167 46.6347C45.1923 46.3594 45.5435 46.172 45.9257 46.096C46.308 46.0201 46.7042 46.0591 47.0643 46.208C47.4244 46.357 47.7321 46.6093 47.9487 46.933C48.1652 47.2566 48.2808 47.6372 48.2808 48.0265C48.2808 48.5485 48.0732 49.0491 47.7036 49.4182C47.334 49.7874 46.8328 49.9947 46.3102 49.9947ZM52.4683 44.0899C51.8391 45.0782 50.8843 45.816 49.7686 46.1763C49.4049 45.5141 48.8582 44.9704 48.1937 44.6101C47.5292 44.2497 46.7749 44.0879 46.0208 44.1439C45.2667 44.1999 44.5447 44.4714 43.9409 44.926C43.337 45.3806 42.8769 45.9991 42.6153 46.7077C41.63 46.5995 40.5265 46.4223 39.4229 46.196C40.1848 43.3395 40.7186 40.4272 41.0191 37.4864C43.4227 35.7582 45.683 33.8395 47.7783 31.7489C52.1432 36.5908 54.1236 41.2163 52.4683 44.0899ZM47.7783 28.8752C45.6732 26.7779 43.403 24.8527 40.9895 23.1181C40.6962 20.1842 40.1691 17.2783 39.4131 14.4282C45.8077 13.0602 50.8229 13.6605 52.488 16.5342C54.1532 19.4079 52.1432 24.0333 47.7783 28.8752Z" fill="#191919"/>
</svg>
