<svg width="49" height="62" viewBox="0 0 49 62" fill="none" xmlns="http://www.w3.org/2000/svg">
<path d="M3.61621 11.4136C8.51929 5.79648 15.4539 2.35261 22.8972 1.83826C34.6692 1.12262 42.3715 8.27905 43.6111 9.49565" stroke="#191919" stroke-width="2.14949" stroke-miterlimit="10" stroke-linecap="round"/>
<path d="M1.76855 22.8494C3.02242 20.7597 10.3665 8.94434 22.8264 7.88518C35.7233 6.79024 44.1278 17.9973 45.4819 19.858" stroke="#191919" stroke-width="2.14949" stroke-miterlimit="10" stroke-linecap="round"/>
<path d="M2.22754 30.7788C3.90835 29.5266 5.43973 28.0859 6.79162 26.4849C9.13456 23.7082 9.44265 22.191 10.9903 20.1943C14.4868 15.6499 19.8533 14.2831 20.663 14.0898C28.1289 12.2935 34.1474 16.3155 34.6275 16.6447C36.8733 18.2163 38.7248 20.2852 40.0373 22.69C41.3499 25.0947 42.0879 27.77 42.1937 30.5069C42.2797 35.6381 39.5498 37.7135 40.6389 42.444C41.3391 45.1335 42.8378 47.5485 44.9379 49.3715" stroke="#191919" stroke-width="2.14949" stroke-miterlimit="10" stroke-linecap="round"/>
<path d="M2.04785 39.3455C5.18938 37.1501 7.93444 34.4373 10.1658 31.323C13.1321 27.1437 13.3972 24.6103 16.736 22.2057C19.0254 20.5022 21.8209 19.6152 24.6748 19.6866C26.6171 19.796 28.5078 20.3521 30.1993 21.3117C31.8909 22.2713 33.3375 23.6084 34.4263 25.2186C38.8614 32.189 31.8254 39.6961 36.1602 48.0048C37.4337 50.3417 39.2865 52.313 41.5411 53.73" stroke="#191919" stroke-width="2.14949" stroke-miterlimit="10" stroke-linecap="round"/>
<path d="M1.41016 47.4536C9.18414 42.4083 13.5906 37.1983 16.1915 33.3266C18.2836 30.2064 20.0964 26.5924 23.5785 26.1272C24.92 25.9769 26.276 26.2254 27.4767 26.8415C28.6773 27.4577 29.6692 28.4141 30.3279 29.5909C31.2665 31.5089 30.9011 33.9493 28.7731 37.8854C24.3022 46.1655 16.4637 52.8139 9.80033 57.394" stroke="#191919" stroke-width="2.14949" stroke-miterlimit="10" stroke-linecap="round"/>
<path d="M3.68848 53.7441C8.86307 50.3084 13.5837 46.2353 17.739 41.6209C20.2818 38.787 22.6007 35.7602 24.6747 32.5679" stroke="#191919" stroke-width="2.14949" stroke-miterlimit="10" stroke-linecap="round"/>
<path d="M45.4824 23.9443C48.1423 30.0287 48.4361 36.8849 46.3064 43.1741" stroke="#191919" stroke-width="2.14949" stroke-miterlimit="10" stroke-linecap="round"/>
<path d="M29.5119 45.5427C28.638 47.6197 28.4767 49.9271 29.0533 52.1052C29.4428 53.4405 30.0953 54.6848 30.9725 55.7649C31.8498 56.8451 32.9341 57.7395 34.162 58.3956" stroke="#191919" stroke-width="2.14949" stroke-miterlimit="10" stroke-linecap="round"/>
<path d="M15.5537 59.3047C16.5149 58.3307 17.5874 57.4732 18.7493 56.7497C20.4689 55.6834 21.6153 54.9463 22.8549 55.1109C24.7536 55.3614 26.3299 57.7445 26.9604 60.8362" stroke="#191919" stroke-width="2.14949" stroke-miterlimit="10" stroke-linecap="round"/>
</svg>
