<svg width="20" height="17" viewBox="0 0 20 17" fill="none" xmlns="http://www.w3.org/2000/svg">
<path fill-rule="evenodd" clip-rule="evenodd" d="M11.0823 4.08632C10.8748 3.23569 10.5201 2.594 9.93014 3.45195C9.41807 2.51317 8.31749 0.606768 7.4332 2.11232C7.0269 1.6798 4.93201 -0.0540669 5.22779 1.65971C4.67502 1.27848 2.74553 0.410361 2.97601 1.71572C2.97601 1.71572 1.14093 1.23688 0.772258 1.63371C0.374953 2.00194 0.854369 3.83484 0.854369 3.83484C-0.452784 3.60464 0.4166 5.53183 0.798287 6.08395C-0.917529 5.78851 0.818401 7.88116 1.25144 8.28673C-0.255907 9.16998 1.65276 10.2692 2.59266 10.7807C0.994928 11.8767 4.59173 12.1598 5.0676 12.1971C4.3622 12.948 5.43508 13.2305 6.90835 12.9551C6.61256 12.2652 6.40362 11.5264 6.30541 10.811C6.2401 10.3349 6.19514 9.64457 6.37285 9.09576C5.4294 7.99271 4.58889 6.58903 4.20744 4.86651C4.96324 6.10498 6.02927 7.25507 7.16888 8.26735C7.18024 8.26428 7.19136 8.26168 7.20249 8.25908C7.23206 8.03502 7.26685 7.81191 7.30873 7.59068C7.4448 6.87383 7.70864 5.76559 8.55365 5.59801C8.73278 5.56232 8.8989 5.57485 9.05224 5.62212C9.10074 5.54531 9.15067 5.46944 9.20179 5.39428C9.6166 4.78639 10.2252 4.08443 11.0279 4.08514C11.0461 4.08537 11.0643 4.08561 11.0823 4.08632V4.08632ZM8.48811 14.2002C6.64569 11.8866 6.5773 8.00264 7.84802 9.19337C7.8854 8.71807 8.16889 5.12555 9.26615 6.72162C9.77822 5.78284 10.8788 3.87644 11.7631 5.38175C12.1691 4.94947 14.2643 3.2156 13.9685 4.92914C14.5213 4.54815 16.4508 3.67979 16.2203 4.98539C16.2203 4.98539 18.0554 4.50655 18.424 4.90338C18.8213 5.27138 18.3419 7.10451 18.3419 7.10451C19.6488 6.8743 18.7797 8.8015 18.398 9.35362C20.1138 9.05818 18.3779 11.1506 17.9449 11.5564C19.4522 12.4396 17.5435 13.5389 16.6036 14.0504C18.2014 15.1463 14.6046 15.4295 14.1287 15.4666C15.2551 16.6658 11.8476 16.6708 9.51438 15.1165C10.9718 14.2584 14.1337 11.9972 14.9889 8.13618C13.4441 10.667 10.6038 12.8294 8.48811 14.2002V14.2002Z" fill="#A5593C"/>
</svg>
