<svg width="19" height="57" viewBox="0 0 19 57" fill="none" xmlns="http://www.w3.org/2000/svg">
<path d="M13.5557 0.475342V4.8769L17.8839 4.87756L13.5557 0.475342Z" fill="#A5593C"/>
<path d="M13.5563 6.65918C12.5726 6.65918 11.7724 5.85937 11.7724 4.87632V0.226074H0.344727V22.145L1.99357 22.1457C1.90431 21.6957 1.85932 21.2369 1.85932 20.7725C1.85932 16.8031 5.17056 13.5738 9.24067 13.5738C13.3107 13.5738 16.622 16.8031 16.622 20.7725C16.622 21.237 16.577 21.696 16.4877 22.1461H18.1838V6.65918H13.5563Z" fill="#A5593C"/>
<path d="M9.24006 15.3555C6.15361 15.3555 3.64258 17.7855 3.64258 20.7723C3.64258 23.7591 6.15361 26.1892 9.24006 26.1892C12.3265 26.1892 14.8375 23.7592 14.8375 20.7723C14.8375 17.7854 12.3265 15.3555 9.24006 15.3555ZM9.84837 24.5718C9.50184 24.936 8.90214 24.9361 8.5555 24.572L6.19843 22.0963L7.49113 20.8685L8.37304 21.7948V16.5671H10.1569V21.6612L10.9885 20.7872L12.2815 22.0148L9.84837 24.5718Z" fill="#A5593C"/>
<path d="M9.26287 27.7034V55.7289M9.26287 55.7289L6.59375 51.7253M9.26287 55.7289L11.7268 51.7253" stroke="#A5593C" stroke-width="0.788665" stroke-dasharray="3.15 3.15"/>
</svg>
