<svg width="58" height="58" viewBox="0 0 58 58" fill="none" xmlns="http://www.w3.org/2000/svg">
<circle cx="29.0315" cy="28.6846" r="28.3592" fill="#E8E6E6"/>
<path fill-rule="evenodd" clip-rule="evenodd" d="M31.8208 23.4064C32.5644 23.4064 33.3081 24.0261 33.3081 24.8936C33.3081 25.6373 32.5644 26.257 31.8208 26.257C31.0772 26.257 30.4575 25.6373 30.4575 24.8936C30.4575 24.0261 31.0772 23.4064 31.8208 23.4064ZM21.9057 20.5558L25.6238 25.6373C25.9957 26.133 26.1196 26.8767 25.6238 27.3724C24.6323 28.3639 24.3844 28.6118 23.3929 29.6033C25.9957 32.2061 28.4744 34.8088 31.0772 37.2876C32.0687 36.2961 32.3166 36.0482 33.3081 35.0567C33.8038 34.5609 34.5475 34.6848 35.1672 35.1806L40.2487 38.7748C40.7444 39.2706 40.7444 40.1382 40.2487 40.6339C38.3896 42.493 36.6544 43.2367 34.7953 43.2367C29.342 43.2367 17.4438 30.9667 17.4438 25.8852C17.4438 24.15 18.3114 22.4149 20.0466 20.4318C20.5423 19.9361 21.5338 19.9361 21.9057 20.5558ZM34.0517 28.1161C34.7953 28.1161 35.2911 28.6118 35.2911 29.3555C35.2911 29.9752 34.7953 30.5949 34.0517 30.5949C33.432 30.5949 32.8123 29.9752 32.8123 29.3555C32.8123 28.6118 33.432 28.1161 34.0517 28.1161ZM37.0262 21.4234C38.2656 21.4234 39.3811 22.4149 39.3811 23.7782C39.3811 25.1415 38.2656 26.133 37.0262 26.133C35.6629 26.133 34.5475 25.1415 34.5475 23.7782C34.5475 22.4149 35.6629 21.4234 37.0262 21.4234Z" fill="#687A61"/>
</svg>
