<svg width="58" height="57" viewBox="0 0 58 57" fill="none" xmlns="http://www.w3.org/2000/svg">
<circle cx="29.0315" cy="28.4759" r="28.3592" fill="#E8E6E6"/>
<path d="M29.0317 20.8994C21.9529 20.8994 13.8492 23.3641 15.3978 33.5853C15.8842 36.7954 17.3275 40.1031 18.725 42.6245C19.9713 44.8732 21.3729 46.2712 24.9048 46.2712H33.1586C36.6906 46.2712 38.0922 44.8732 39.3385 42.6245C40.736 40.1031 42.1792 36.7954 42.6656 33.5853C44.2143 23.3641 36.1105 20.8994 29.0317 20.8994ZM41.5564 33.3339C41.0194 36.4596 39.2592 39.5979 38.2578 41.1905C37.1568 42.941 36.1935 43.722 33.3927 43.722H24.6707C21.8699 43.722 20.9066 42.941 19.8061 41.1907C18.8046 39.5985 17.0449 36.4614 16.507 33.3337C16.0104 30.4473 16.5423 28.181 18.0872 26.5976C20.7606 23.8577 26.0915 23.4486 29.0317 23.4486C31.9719 23.4486 37.3033 23.8577 39.9762 26.5976C41.5211 28.181 42.053 30.4473 41.5564 33.3339Z" fill="#687A61"/>
<path d="M33.3191 19.4138V12.2379C33.3191 11.8248 33.155 11.4286 32.8629 11.1364C32.5707 10.8443 32.1745 10.6802 31.7614 10.6802H26.5348C26.1216 10.6802 25.7254 10.8443 25.4333 11.1364C25.1412 11.4286 24.9771 11.8248 24.9771 12.2379V19.3797C27.7451 18.9923 30.5544 19.0038 33.3191 19.4138Z" fill="#687A61"/>
<path d="M18.0034 31.6294C18.0034 31.6294 18.0631 32.5467 18.1499 33.0511C18.6391 35.8952 20.2819 38.8157 21.2177 40.3036C22.0008 41.5496 22.4087 42.0551 24.671 42.0551H33.3928C35.655 42.0551 36.0629 41.5494 36.8469 40.303C37.7822 38.8159 39.4251 35.8961 39.9139 33.0513C40.0006 32.5469 40.0603 31.6294 40.0603 31.6294C32.6988 29.4556 24.4393 33.4315 18.0034 31.6294Z" fill="#687A61"/>
</svg>
