<svg width="58" height="58" viewBox="0 0 58 58" fill="none" xmlns="http://www.w3.org/2000/svg">
<circle cx="29.0315" cy="28.7078" r="28.3592" fill="#E8E6E6"/>
<path d="M48.4585 20.5007C47.3965 17.9899 45.8766 15.7353 43.94 13.7992C42.0035 11.8631 39.7494 10.3423 37.2385 9.28069C34.6388 8.18076 31.8778 7.62378 29.0311 7.62378C26.1859 7.62378 23.4244 8.18123 20.8247 9.28069C18.3138 10.3423 16.0593 11.8626 14.1232 13.7992C12.1871 15.7353 10.6662 17.9899 9.60466 20.5007C8.50473 23.1004 7.94775 25.8615 7.94775 28.7076C7.94775 31.5543 8.5052 34.3148 9.60466 36.915C10.6662 39.4254 12.1866 41.6804 14.1232 43.6161C16.0593 45.5531 18.3138 47.0725 20.8247 48.1346C23.4239 49.2345 26.1854 49.7919 29.0311 49.7919C31.8778 49.7919 34.6393 49.2345 37.2385 48.1346C39.7494 47.0725 42.0035 45.5526 43.94 43.6161C45.8766 41.6804 47.3965 39.4254 48.4585 36.915C49.5585 34.3148 50.1154 31.5543 50.1154 28.7076C50.1154 25.8615 49.5585 23.1004 48.4585 20.5007ZM39.3879 15.6988L39.3458 15.6731C39.2555 15.6188 39.1227 15.5029 39.0554 15.4206L38.8398 15.154C38.7813 15.081 38.7294 14.9347 38.7294 14.8411V14.4703C38.7294 14.4118 38.778 14.3632 38.8365 14.3632H39.2293C39.2915 14.3931 39.4697 14.5128 39.6128 14.6176C39.6858 14.6695 39.7643 14.7967 39.7784 14.8842L39.7877 14.9403C39.8088 15.0722 39.8873 15.2611 39.964 15.3705L40.0664 15.5136C40.1413 15.6188 40.2792 15.7633 40.3807 15.8424L40.557 15.9789C40.6356 16.0407 40.7431 16.1744 40.7871 16.2656C40.81 16.3138 41.0172 16.744 41.136 16.8918C41.2463 17.0302 41.3796 17.2224 41.3805 17.2243C41.4353 17.3029 41.4839 17.4572 41.4839 17.5531V17.6387C41.4839 17.685 41.4572 17.7013 41.4161 17.6887L40.9704 17.5549C40.8783 17.5269 40.7464 17.4366 40.6875 17.3609L40.3503 16.9283C40.268 16.8231 40.1109 16.694 39.9911 16.6337L39.6862 16.4807C39.6212 16.448 39.5702 16.3526 39.5787 16.2806L39.5978 16.1262C39.617 15.9686 39.5249 15.7807 39.3879 15.6988ZM37.9227 15.9331L37.8366 16.0477C37.7801 16.1234 37.6505 16.2123 37.5589 16.2376L37.0575 16.3788C37.0318 16.3863 36.9981 16.39 36.9617 16.39C36.8812 16.39 36.7961 16.3713 36.7442 16.3432L36.4921 16.2062C36.429 16.1716 36.3476 16.1529 36.2639 16.1529C36.1708 16.1529 36.082 16.1754 36.0146 16.216L35.8108 16.3381C35.7888 16.3512 35.7598 16.3587 35.7284 16.3587C35.6807 16.3587 35.6344 16.3409 35.6059 16.3128L35.0232 15.7306C34.9657 15.6722 34.9273 15.5459 34.9418 15.4655L35.0321 15.0011C35.0485 14.9164 35.1317 14.8 35.2065 14.757L35.2351 14.7415C35.2851 14.713 35.3674 14.6948 35.4441 14.6948C35.4815 14.6948 35.5152 14.699 35.5418 14.7069L35.5896 14.7214C35.6597 14.7429 35.7542 14.7551 35.8472 14.7551C35.8991 14.7551 35.9749 14.7513 36.0427 14.7331C36.0647 14.727 36.0904 14.7242 36.1175 14.7242C36.1877 14.7242 36.2471 14.7434 36.2709 14.7612C36.3467 14.8159 36.4912 14.9113 36.5931 14.9744L36.8204 15.1147C36.9135 15.1722 37.0617 15.2845 37.1412 15.3598L37.3615 15.5669C37.4583 15.6577 37.6318 15.7638 37.7581 15.8078L37.8988 15.8569C37.9199 15.8644 37.9334 15.8751 37.9372 15.8877C37.9409 15.899 37.9353 15.9163 37.9227 15.9331ZM29.0311 48.7215C23.488 48.7215 18.4644 46.4557 14.8363 42.8023C14.8246 42.7093 14.8097 42.612 14.7961 42.5409L14.7054 42.0625C14.6829 41.947 14.6479 41.7585 14.6268 41.6425L14.5324 41.1225C14.509 40.9958 14.4477 40.8064 14.3916 40.6918L14.2359 40.37C14.1989 40.2943 14.1994 40.1559 14.2377 40.0806L14.3883 39.7785C14.4271 39.7004 14.5389 39.6106 14.6226 39.5886L14.7007 39.568C14.856 39.5278 14.9935 39.3707 15.014 39.2117L15.1735 37.9668C15.1899 37.8377 15.1819 37.6361 15.1548 37.5089L15.0299 36.9215C15.0056 36.8074 14.9696 36.6213 14.9495 36.5053L14.8934 36.1784C14.877 36.0835 14.899 35.924 14.9397 35.8375L15.2713 35.1328C15.3218 35.0252 15.4055 34.8526 15.4569 34.7507L15.629 34.4056C15.6889 34.2849 15.7361 34.0861 15.7361 33.9519V33.0741C15.7361 32.8974 15.5925 32.7529 15.4148 32.7529H15.2867C15.1988 32.7529 15.0627 32.6949 15.0019 32.6308L14.8059 32.426C14.7222 32.3394 14.5833 32.2029 14.4954 32.122L14.2536 31.8984C14.1531 31.8058 13.9688 31.7123 13.8346 31.6857L13.2697 31.5753C13.1841 31.5589 13.0644 31.4752 13.0186 31.4009L13.0064 31.3812C12.9381 31.2694 12.8053 31.1179 12.7034 31.037L12.2885 30.705C12.1866 30.6231 12.0103 30.5263 11.8873 30.4833L11.7358 30.4309C11.6745 30.4094 11.6315 30.3355 11.6436 30.2724L11.6698 30.1358C11.675 30.1106 11.7129 29.8987 11.6469 29.7912C11.6493 29.7748 11.6609 29.7407 11.6895 29.7033C11.7727 29.5952 11.7882 29.4044 11.726 29.2595L11.7021 29.2038C11.6619 29.1098 11.6263 28.9578 11.6263 28.8788C11.6263 28.7675 11.5754 28.5874 11.5099 28.4691L11.1811 27.871C11.1152 27.7508 10.9698 27.604 10.85 27.5371L10.6667 27.4337C10.5928 27.3921 10.5129 27.278 10.4998 27.1943L10.2238 25.4551C10.2028 25.3204 10.1191 25.1329 10.0349 25.0262L9.49476 24.3528C10.4072 20.258 12.5776 16.6318 15.5776 13.903L16.0406 13.7641C16.165 13.7262 16.3455 13.6374 16.4512 13.5616L16.8173 13.2983C16.8898 13.2464 17.0353 13.2113 17.1236 13.2254L17.6142 13.3021C17.7564 13.324 17.9608 13.2768 18.0786 13.194L18.5846 12.84C18.6908 12.7652 18.8348 12.6249 18.9115 12.5201L19.6004 11.5811C19.6654 11.4922 19.7893 11.3538 19.8707 11.279L20.2691 10.9123C20.3407 10.8464 20.4005 10.7431 20.4337 10.6378C21.3274 10.2109 22.2567 9.84842 23.2172 9.55614L23.156 9.61039C23.0648 9.69082 22.9254 9.83252 22.8454 9.92512L22.1243 10.7702C22.0326 10.8777 22.0579 10.9666 22.0733 10.9998C22.0888 11.0325 22.1393 11.1097 22.2814 11.1097H22.5092C22.6574 11.1097 22.8464 11.0288 22.9483 10.9212L23.1424 10.7173C23.2083 10.6481 23.3486 10.5705 23.4431 10.5518L24.1684 10.4068C24.2872 10.3834 24.478 10.3357 24.5935 10.3006L25.5466 10.0126C25.6631 9.97703 25.8483 9.90875 25.9596 9.86011L27.1661 9.33119C27.2568 9.29144 27.4233 9.26479 27.522 9.27414L28.2946 9.34756C28.4185 9.35972 28.6196 9.35692 28.7435 9.34195L30.2021 9.16518C30.3336 9.14928 30.5253 9.08614 30.6413 9.0202L31.0378 8.79479C32.1256 8.90329 33.1872 9.10017 34.2174 9.37656C34.2076 9.39339 34.1964 9.40929 34.1875 9.42519C34.1216 9.53556 34.0439 9.71841 34.0093 9.84188C33.9883 9.91904 33.898 10.0084 33.8204 10.0299L33.6633 10.0724C33.5866 10.0935 33.465 10.0612 33.4093 10.0051L33.3411 9.93681C33.2358 9.83159 33.0441 9.75676 32.8963 9.76191L32.5531 9.775C32.4235 9.77968 32.2271 9.8199 32.1055 9.86619L32.0195 9.8994C31.9362 9.9312 31.7847 9.92933 31.7024 9.89472L31.5827 9.84515C31.4751 9.79979 31.2979 9.72449 31.1898 9.6782L31.1267 9.65014C30.978 9.58654 30.7741 9.62722 30.6609 9.7432L30.5594 9.84842C30.4771 9.93447 30.3457 10.0785 30.2671 10.1697L30.1175 10.3432C30.0455 10.4269 29.923 10.5476 29.85 10.6056C29.8182 10.6313 29.7466 10.6247 29.6985 10.5766C29.6877 10.5653 29.5872 10.4681 29.4609 10.4681C29.3042 10.4681 28.961 10.8095 28.9572 10.8132C28.8885 10.8824 28.8282 11.0227 28.816 11.0498C28.7585 11.1887 28.766 11.394 28.8328 11.5273L28.8408 11.5446C28.9035 11.6699 29.0424 11.8131 29.1565 11.8696C29.265 11.9239 29.4553 11.9664 29.589 11.9664H29.6751C29.7069 11.9664 29.7261 11.9763 29.7307 11.9833C29.7335 11.9861 29.7317 11.9931 29.7298 11.9968C29.7097 12.0581 29.6255 12.1353 29.5582 12.1563C29.4085 12.2021 29.2968 12.3382 29.2968 12.4729C29.2968 12.5524 29.279 12.711 29.257 12.819L29.2551 12.8274C29.2388 12.9116 29.1541 13.0243 29.0788 13.0645L29.0288 13.0912C28.9105 13.1548 28.7566 13.2894 28.679 13.3984L28.642 13.4498C28.5873 13.5261 28.4751 13.5887 28.411 13.5939C28.3549 13.5976 28.2534 13.5509 28.2085 13.484C28.1571 13.4068 28.1126 13.2548 28.1126 13.158V13.0154C28.1126 12.8774 28.0523 12.6792 27.9752 12.5641L27.9275 12.4921C27.8709 12.4079 27.8063 12.2452 27.79 12.1446L27.7741 12.052C27.7455 11.8832 27.5898 11.7513 27.4191 11.7513H27.3331C27.1722 11.7513 27.0001 11.8696 26.943 12.0202L26.8341 12.3055C26.8051 12.3822 26.7055 12.4696 26.625 12.4883L26.1896 12.5903C26.0409 12.6254 25.8829 12.7568 25.8211 12.8966L25.5938 13.418C25.5564 13.5027 25.5606 13.5906 25.6046 13.658C25.6486 13.7258 25.7267 13.7641 25.8202 13.7641H25.9918C26.126 13.7641 26.3159 13.7211 26.4249 13.6673C26.4389 13.6598 26.4515 13.6589 26.4623 13.664C26.4768 13.6711 26.4889 13.6884 26.4946 13.7117C26.5296 13.8525 26.6554 14.0106 26.7878 14.0798L26.7943 14.0835C26.8677 14.1223 26.9454 14.2266 26.9561 14.3019C26.9669 14.3796 26.929 14.4768 26.8883 14.5082C26.777 14.5961 26.7377 14.7827 26.799 14.9323C26.8392 15.0324 26.8958 15.2092 26.9215 15.3177L26.9374 15.3859C26.9585 15.4739 26.9379 15.6273 26.8949 15.7072L26.8663 15.7591C26.8243 15.8368 26.7083 15.9294 26.6232 15.9537L26.3262 16.0369C26.2313 16.0641 26.0638 16.0659 25.9684 16.0411L25.498 15.92C25.3404 15.8793 25.1482 15.9504 25.0607 16.0818C24.9864 16.1927 24.9284 16.3881 24.9284 16.5266V16.9259C24.9284 17.0821 25.0294 17.2617 25.1622 17.3431L25.4746 17.5339C25.5887 17.6036 25.7823 17.6695 25.9147 17.6835L26.4955 17.7453C26.6381 17.7607 26.8397 17.7065 26.9557 17.6218L27.4018 17.2959C27.4925 17.2295 27.6525 17.1266 27.7507 17.0719L28.2413 16.7964C28.3619 16.7281 28.5045 16.578 28.5667 16.4545L28.6322 16.3241C28.6668 16.2558 28.7678 16.1964 28.8422 16.1987L29.2135 16.2123C29.3374 16.217 29.5371 16.2043 29.6597 16.1852L29.7784 16.1665C29.8752 16.1515 30.038 16.1725 30.1264 16.2114L30.1914 16.2394C30.269 16.274 30.3583 16.3793 30.3784 16.4616L30.3883 16.5027C30.4229 16.6421 30.5445 16.8128 30.6632 16.8923L30.9064 17.0545C31.0126 17.1252 31.1912 17.2131 31.3128 17.2542L31.4115 17.2879C31.4919 17.3155 31.5916 17.4132 31.6196 17.4927L31.628 17.5171C31.672 17.6419 31.7767 17.8159 31.8675 17.9132L31.9184 17.9698C31.9816 18.0366 32.0629 18.0694 32.1439 18.0595C32.2243 18.0493 32.2954 17.9978 32.3393 17.9174L32.4773 17.6658C32.5222 17.5835 32.6372 17.4806 32.7237 17.446L32.8972 17.3772C32.9548 17.3538 33.0324 17.3819 33.0619 17.4376L33.3467 17.973C33.407 18.0867 33.5258 18.2471 33.617 18.3387L33.7998 18.5216C33.8639 18.5852 33.9467 18.6151 34.0271 18.6034C34.1094 18.5917 34.1796 18.5394 34.2226 18.4603L34.3605 18.2078C34.4045 18.1288 34.5214 18.0287 34.607 17.9987L34.773 17.9403C34.8478 17.9136 34.9722 17.937 35.0335 17.9889L35.2781 18.197C35.3852 18.2882 35.5797 18.3635 35.72 18.3687L36.0918 18.3818C36.2097 18.386 36.4042 18.3897 36.5239 18.3897H36.7241C36.8466 18.3897 37.0449 18.3733 37.166 18.3532L37.4293 18.3088C37.5023 18.2971 37.6037 18.3434 37.643 18.407L37.8203 18.6979C37.8703 18.7816 37.9152 18.9411 37.9152 19.0388V19.5528C37.9152 19.6636 37.8998 19.8502 37.8815 19.9606L37.8376 20.2234C37.8203 20.3305 37.7665 20.5026 37.7207 20.6003L37.6739 20.6985C37.6454 20.7589 37.6309 20.8332 37.6281 20.9085L37.4401 20.6663C37.3606 20.5667 37.2207 20.4268 37.1211 20.3483L37.0571 20.2987C36.964 20.2253 36.8167 20.1776 36.6806 20.1776C36.6507 20.1776 36.6203 20.1808 36.5927 20.186L36.2705 20.2477C36.2073 20.2599 36.1105 20.2678 36.0184 20.2678C35.9665 20.2678 35.9188 20.2655 35.8814 20.2603L35.3936 20.1995C35.2884 20.186 35.1224 20.1336 35.0284 20.0845L34.4363 19.7712C34.3634 19.7324 34.2637 19.7104 34.1623 19.7104C34.0865 19.7104 34.0159 19.7225 33.9584 19.7454L33.6422 19.8722C33.4814 19.9358 33.3892 20.1168 33.4313 20.2842L33.4411 20.3258C33.465 20.4189 33.4575 20.5723 33.4257 20.6546C33.4065 20.7051 33.3317 20.7402 33.2695 20.7261L32.9454 20.6508C32.8383 20.6265 32.6625 20.5671 32.5629 20.5208L32.2668 20.3852C32.17 20.3412 32.0223 20.2416 31.9446 20.1691L31.8001 20.0335C31.7005 19.94 31.5172 19.8441 31.3834 19.8165L31.259 19.7903C31.152 19.7679 30.9766 19.7108 30.8774 19.6659L30.6965 19.5846C30.6717 19.5738 30.6534 19.5542 30.6455 19.5303C30.6371 19.506 30.6399 19.4798 30.653 19.4555L30.6796 19.405C30.7437 19.2857 30.7928 19.087 30.7928 18.9523V18.8134C30.7928 18.6923 30.7862 18.5207 30.7792 18.4304C30.7657 18.2868 30.6184 18.1741 30.4439 18.1741H30.1586C30.0371 18.1741 29.8397 18.1853 29.72 18.1989L28.8614 18.2943C28.83 18.2976 28.7908 18.2995 28.7477 18.2995C28.6491 18.2995 28.542 18.2896 28.4723 18.2761L28.2066 18.2204C28.1734 18.2134 28.137 18.2101 28.0972 18.2101C27.9695 18.2101 27.8283 18.2471 27.7367 18.3037L27.587 18.3963C27.4846 18.4594 27.3223 18.5679 27.225 18.6371L26.8603 18.8981C26.8074 18.9359 26.7134 18.9617 26.6306 18.9617C26.6059 18.9617 26.5834 18.9598 26.5652 18.9551L25.925 18.7994C25.8978 18.7924 25.8693 18.7896 25.8394 18.7896C25.6995 18.7896 25.5569 18.8644 25.4858 18.9757L25.2604 19.3283C25.2071 19.4106 25.0841 19.5205 24.9957 19.5631L24.6108 19.7483C24.4832 19.81 24.3373 19.9601 24.2797 20.0896L24.1114 20.4689C24.0665 20.569 23.9744 20.7294 23.9098 20.8187L23.705 21.1007C23.6419 21.1872 23.5151 21.3126 23.4291 21.3748L22.7486 21.8663C22.642 21.9434 22.5026 22.0903 22.432 22.2011L22.006 22.868C21.94 22.9713 21.846 23.1472 21.7969 23.259L21.3414 24.2943C21.2708 24.4543 21.3223 24.6385 21.4588 24.7124C21.4944 24.7321 21.5178 24.805 21.4948 24.8705L21.4658 24.9523C21.4233 25.0725 21.3812 25.2661 21.37 25.3933L21.2652 26.5658C21.2545 26.6855 21.246 26.8814 21.246 27.0025V27.8584C21.246 28.0239 21.3704 28.1895 21.529 28.2344L21.717 28.2881C21.789 28.3087 21.8648 28.3957 21.875 28.471L21.9026 28.6744C21.9204 28.8049 21.9859 28.9971 22.0523 29.1112L22.4657 29.8249C22.5312 29.9376 22.6602 30.0924 22.7589 30.1765L23.4038 30.727C23.4973 30.8069 23.6606 30.9224 23.7681 30.9842L24.1394 31.1988C24.2021 31.2353 24.2839 31.2545 24.3677 31.2545C24.4607 31.2545 24.5486 31.2311 24.6164 31.1885L24.7965 31.0754C24.8568 31.037 24.9658 31.0085 25.0551 31.0085C25.0766 31.0085 25.0953 31.0108 25.1122 31.0136L25.3189 31.0511C25.3479 31.0567 25.3778 31.0595 25.4082 31.0595C25.5125 31.0595 25.6439 31.0263 25.7066 30.9327C25.7084 30.9323 25.7117 30.9323 25.7159 30.9323C25.7421 30.9323 25.7753 30.9449 25.8057 30.9659L26.1111 31.1778C26.1981 31.2386 26.3295 31.276 26.4548 31.276C26.5011 31.276 26.5437 31.2708 26.5815 31.2615L28.1084 30.857C28.1996 30.8331 28.3755 30.8331 28.4667 30.8579L28.7959 30.9458C28.8782 30.9683 28.9858 31.0595 29.0218 31.1371L29.1574 31.4336C29.2205 31.5711 29.38 31.7011 29.5273 31.7362L29.5956 31.7525C29.72 31.7815 29.9099 31.8044 30.0296 31.8044C30.1166 31.8044 30.2625 31.8531 30.3392 31.9092L30.5061 32.0299C30.5739 32.0785 30.6347 32.1992 30.6347 32.2829V32.4255C30.6347 32.5363 30.6212 32.7248 30.6039 32.8352L30.5552 33.1541C30.5314 33.3061 30.5973 33.5006 30.7086 33.6068L30.7708 33.6667C30.8255 33.72 30.855 33.8355 30.8311 33.9089L30.8204 33.9444C30.7717 34.0941 30.8213 34.2975 30.9326 34.4079L31.5429 35.0191C31.6299 35.1061 31.7805 35.2352 31.8792 35.3077L31.9624 35.3685C32.0302 35.418 32.091 35.5392 32.091 35.6229V36.279C32.091 36.4039 32.1121 36.6031 32.1387 36.7247L32.2767 37.363C32.2958 37.4495 32.2682 37.5959 32.2201 37.6712L31.8254 38.2824C31.7552 38.3905 31.6729 38.5724 31.6383 38.6972L31.44 39.3983C31.4017 39.5348 31.418 39.7439 31.4774 39.8725L31.8399 40.6544C31.8876 40.7573 31.9549 40.9331 31.9877 41.0397L32.1181 41.4588C32.149 41.5588 32.1682 41.7319 32.1602 41.8371L32.1364 42.1523C32.1256 42.287 32.1612 42.4895 32.2168 42.6129L32.4123 43.0502C32.4614 43.1582 32.5446 43.3341 32.5975 43.4407L32.72 43.6857C32.7658 43.776 32.8051 43.9434 32.8051 44.0435V44.3578C32.8051 44.5051 32.8837 44.6949 32.987 44.7988L32.9987 44.8095C33.103 44.9138 33.292 44.9924 33.4397 44.9924H33.6679C33.7956 44.9924 33.993 44.9652 34.1164 44.9311C34.1585 44.9194 35.142 44.6449 35.229 44.6159C35.3169 44.5864 36.2667 43.986 36.6703 43.7292C36.7788 43.66 36.9308 43.5291 37.0136 43.4304L37.8193 42.4904C37.8914 42.4072 38.0256 42.2795 38.1126 42.2126L38.6588 41.7894C38.7682 41.7047 38.8889 41.5364 38.9338 41.4064L39.0801 40.9836C39.1222 40.8611 39.1559 40.6623 39.1559 40.5323V40.3892C39.1559 40.305 39.2172 40.1806 39.2826 40.1292L39.5721 39.9057C39.668 39.8308 39.8176 39.7013 39.9046 39.6176L40.6253 38.9166C40.7123 38.831 40.8455 38.6841 40.9204 38.5878L41.3698 38.0121C41.4568 37.9008 41.525 37.7044 41.525 37.5636V37.0212C41.525 36.8972 41.5049 36.698 41.482 36.5764L41.4198 36.2547C41.3988 36.1448 41.3749 35.9563 41.3689 35.8445L41.338 35.3301C41.3314 35.2342 41.3707 35.0776 41.4203 34.9948L41.6841 34.5622C41.7397 34.4692 41.8538 34.327 41.9314 34.2512L42.451 33.7499C42.5572 33.647 42.6381 33.4581 42.6381 33.3103V32.7678C42.6381 32.6832 42.6984 32.5592 42.7648 32.5078L43.0543 32.2838C43.1548 32.2057 43.2956 32.0673 43.3751 31.9677L43.9078 31.3036C43.9882 31.2012 44.0859 31.0244 44.128 30.9014L44.3609 30.2219C44.3993 30.1097 44.4605 29.9268 44.497 29.8136L44.707 29.165C44.7472 29.0415 44.7781 28.8437 44.7781 28.7142V28.543C44.7781 28.3634 44.6312 28.2245 44.4502 28.2381L44.106 28.2633C43.9774 28.2727 43.7829 28.3171 43.6622 28.3639L43.2339 28.5304C43.1254 28.5729 42.9463 28.6389 42.8354 28.6782L42.6965 28.7273C42.6727 28.7362 42.6418 28.7399 42.6081 28.7399C42.5371 28.7399 42.4618 28.7202 42.4173 28.6889L42.2822 28.5935C42.2092 28.5416 42.1526 28.4322 42.1526 28.3718C42.1526 28.2428 42.0797 28.0632 41.9829 27.9547C41.895 27.857 41.7355 27.7335 41.6186 27.6732L41.2861 27.5034C41.2028 27.4608 41.0981 27.3481 41.0616 27.2621L40.9732 27.0563C40.9293 26.9544 40.8708 26.7771 40.8465 26.6686L40.7431 26.2295C40.7137 26.1042 40.6328 25.9452 40.5331 25.883C40.4985 25.8605 40.4181 25.7647 40.3713 25.6636L40.1483 25.1684C40.1024 25.0688 40.0458 24.8939 40.0229 24.7863L39.9388 24.3781C39.9112 24.2424 39.8125 24.0605 39.7148 23.9628L39.5604 23.8084C39.4847 23.7318 39.3743 23.5882 39.321 23.4942L39.3046 23.4661C39.2462 23.3637 39.1494 23.1963 39.089 23.0943L38.4507 22.0075C38.4039 21.9294 38.331 21.8186 38.266 21.7278H38.6635C38.743 21.7278 38.8533 21.79 38.8926 21.8593L38.9609 21.9757C39.0212 22.0772 39.1199 22.2432 39.1812 22.3442L39.4744 22.8334C39.5403 22.9438 39.667 23.0985 39.762 23.1846C39.8424 23.2571 40.2423 23.6186 40.3676 23.6836C40.4359 23.7355 40.6837 24.1236 40.8755 24.4562C40.9349 24.559 41.027 24.7255 41.0808 24.8279L41.5358 25.6772C41.5943 25.7852 41.7018 25.9527 41.7762 26.0509L41.8875 26.1963C41.945 26.2716 41.995 26.4208 41.995 26.5152V26.6008C41.995 26.7276 42.017 26.9235 42.0451 27.0474L42.1784 27.6292C42.213 27.7817 42.3509 27.9337 42.4992 27.9832L42.8644 28.1043C42.9103 28.1198 42.9612 28.1268 43.0141 28.1268C43.1301 28.1268 43.2516 28.0922 43.3363 28.03L43.962 27.5698C44.0607 27.4973 44.2113 27.3678 44.2983 27.2813L44.6518 26.9277C44.7388 26.8407 44.8683 26.6911 44.9422 26.5933L45.2845 26.1369C45.3631 26.0308 45.4515 25.8484 45.4838 25.7202L45.7204 24.7938C45.7513 24.6699 45.7761 24.473 45.7761 24.3458V23.8894C45.7761 23.7463 45.7031 23.5503 45.6082 23.4437L45.264 23.0518C45.1826 22.9592 45.0386 22.8212 44.9418 22.7441L44.7051 22.5547C44.6382 22.5013 44.5545 22.477 44.4685 22.4873C44.3834 22.4981 44.3085 22.5411 44.2566 22.6098L44.1453 22.7548C44.0668 22.8572 43.9709 23.0321 43.9279 23.1533C43.9204 23.1757 43.9106 23.1832 43.9059 23.1846C43.9012 23.1855 43.8886 23.1837 43.8703 23.1664L43.6173 22.9391C43.5472 22.8759 43.4719 22.7394 43.4555 22.6459L43.4144 22.4111C43.3896 22.2661 43.2792 22.0926 43.1595 22.0075L42.624 21.6273C42.5455 21.5716 42.4468 21.4435 42.4141 21.3528L42.3622 21.2125C42.321 21.0988 42.2527 20.9188 42.2097 20.8108L42.1657 20.6957C42.162 20.6878 42.1611 20.6822 42.1592 20.6766C42.1648 20.6766 42.1709 20.6775 42.1784 20.6784L42.5282 20.7434C42.6194 20.7607 42.7522 20.8388 42.8111 20.9108L42.9388 21.0656C43.0173 21.1606 43.1562 21.3032 43.2493 21.3836L43.3545 21.4744C43.4569 21.5632 43.6412 21.654 43.7745 21.6806L44.0686 21.7391C44.1762 21.7601 44.3525 21.8158 44.454 21.8588L44.6593 21.9467C44.7706 21.9949 44.9572 22.0618 45.0732 22.0959L45.4337 22.203C45.5605 22.2409 45.7644 22.2544 45.8967 22.2348L46.0435 22.2128C46.1319 22.1992 46.2783 22.2348 46.3513 22.2867L46.4032 22.3236C46.4752 22.3755 46.5575 22.5032 46.5739 22.5916L46.6075 22.7703C46.637 22.9227 46.7745 23.0808 46.9227 23.1294L47.1154 23.1939C47.1996 23.222 47.3128 23.3197 47.3521 23.3992L47.3605 23.4156C47.4105 23.5152 47.4783 23.6887 47.5101 23.7949L47.5321 23.8692C47.5597 23.9632 47.6191 24.025 47.6958 24.0399C47.7725 24.0549 47.851 24.0194 47.9114 23.9427L47.9497 23.894L48.0054 24.1699C48.0292 24.2915 48.0877 24.4833 48.1358 24.5979L48.3411 25.088C48.3832 25.1894 48.438 25.3667 48.4599 25.4747L48.5469 25.9115C48.5717 26.0336 48.6311 26.2253 48.6802 26.3394L48.8537 26.7453C48.8804 26.8075 48.9215 26.887 48.9659 26.9637C49.015 27.538 49.0408 28.1193 49.0408 28.7067C49.045 39.7434 40.0674 48.7215 29.0311 48.7215Z" fill="#687A61"/>
<path d="M43.7971 36.939C43.7443 36.939 43.6919 36.96 43.6409 37.0021L43.3439 37.2453C43.2369 37.3332 43.1237 37.5072 43.0863 37.6414L43.0577 37.7424C43.033 37.8289 42.9418 37.9491 42.8651 37.9959L42.8038 38.0319C42.7014 38.0941 42.5372 38.1965 42.4376 38.261L42.2258 38.399C42.1173 38.4691 41.9681 38.6038 41.8867 38.7044L41.6702 38.9705C41.5818 39.0808 41.5121 39.2768 41.5121 39.418V39.5326C41.5121 39.6275 41.463 39.7786 41.406 39.8548L41.2596 40.0526C41.1876 40.1513 41.0805 40.3178 41.0211 40.4239L40.8008 40.8205C40.7279 40.9524 40.7138 41.1572 40.769 41.298L40.8696 41.5566C40.9182 41.6805 41.0412 41.7633 41.1754 41.7633C41.2128 41.7633 41.2502 41.7568 41.2849 41.7437L41.5103 41.6618C41.6426 41.6137 41.8054 41.4841 41.8811 41.3663L41.9625 41.2405C42.0275 41.1409 42.1332 40.9819 42.1991 40.8874L42.4694 40.4974C42.5344 40.4024 42.6485 40.2533 42.7224 40.1644L42.8768 39.9792C42.96 39.8782 43.0587 39.7028 43.1012 39.5784L43.3051 38.984C43.3397 38.8835 43.423 38.7254 43.488 38.6403L43.8303 38.1829C43.9145 38.0712 43.98 37.8738 43.98 37.7335V37.163C43.9818 37.0077 43.8897 36.939 43.7971 36.939Z" fill="#687A61"/>
</svg>
