<svg width="27" height="23" viewBox="0 0 27 23" fill="none" xmlns="http://www.w3.org/2000/svg">
<path fill-rule="evenodd" clip-rule="evenodd" d="M15.7249 5.06972C15.4371 3.88874 14.9452 2.99784 14.1271 4.18899C13.417 2.88562 11.8909 0.238839 10.6646 2.32909C10.1012 1.7286 7.19617 -0.67864 7.60634 1.7007C6.83981 1.17141 4.16415 -0.0338451 4.48376 1.77847C4.48376 1.77847 1.93903 1.11366 1.42779 1.66461C0.876844 2.17585 1.54166 4.72058 1.54166 4.72058C-0.27099 4.40097 0.934597 7.07662 1.46389 7.84316C-0.915457 7.43298 1.49178 10.3383 2.09228 10.9014C0.00202274 12.1277 2.6488 13.6539 3.95217 14.364C1.73657 15.8855 6.7243 16.2787 7.38419 16.3305C6.406 17.373 7.89379 17.7651 9.93679 17.3828C9.52662 16.425 9.23687 15.3992 9.10069 14.406C9.01012 13.7451 8.94778 12.7866 9.19421 12.0246C7.88592 10.4932 6.72036 8.54439 6.1914 6.15291C7.23948 7.87236 8.71775 9.46909 10.2981 10.8745C10.3138 10.8702 10.3292 10.8666 10.3447 10.863C10.3857 10.552 10.4339 10.2422 10.492 9.93505C10.6807 8.9398 11.0466 7.40115 12.2183 7.1685C12.4668 7.11895 12.6971 7.13634 12.9097 7.20197C12.977 7.09533 13.0462 6.98999 13.1171 6.88564C13.6924 6.04167 14.5363 5.06709 15.6494 5.06808C15.6746 5.0684 15.6999 5.06873 15.7249 5.06972ZM12.1275 19.1115C9.57256 15.8993 9.47772 10.507 11.2398 12.1602C11.2917 11.5003 11.6848 6.51255 13.2064 8.72848C13.9165 7.42511 15.4427 4.77833 16.6689 6.86825C17.232 6.26809 20.1374 3.86085 19.7272 6.23986C20.4937 5.7109 23.1694 4.50532 22.8498 6.31796C22.8498 6.31796 25.3945 5.65315 25.9057 6.2041C26.4567 6.71501 25.7919 9.26007 25.7919 9.26007C27.6042 8.94046 26.3989 11.6161 25.8696 12.3826C28.249 11.9725 25.8417 14.8775 25.2412 15.4409C27.3315 16.6672 24.6847 18.1934 23.3813 18.9034C25.5969 20.425 20.6092 20.8181 19.9493 20.8697C21.5113 22.5346 16.7861 22.5415 13.5506 20.3837C15.5716 19.1922 19.9562 16.0529 21.1421 10.6924C19 14.2061 15.0614 17.2083 12.1275 19.1115Z" fill="#687A61"/>
</svg>
