<svg width="102" height="23" viewBox="0 0 102 23" fill="none" xmlns="http://www.w3.org/2000/svg">
<path d="M65.5004 15.8526C64.6091 16.8037 62.6449 16.6347 61.9538 16.2892C61.801 17.6424 62.9086 18.6172 63.4815 18.9355C66.619 20.2178 68.5287 16.753 67.9012 16.0982C67.3993 15.5744 66.3917 14.9016 65.5004 15.8526Z" fill="#E8985D"/>
<path fill-rule="evenodd" clip-rule="evenodd" d="M7.09691 22.5983V3.15625H10.5326V22.5983H7.09691ZM2.22119 7.68386C1.65302 7.68386 1.15587 7.47967 0.729747 7.0713C0.321374 6.64517 0.117188 6.14802 0.117188 5.57985C0.117188 5.01168 0.321374 4.51453 0.729747 4.0884C1.15587 3.66228 1.65302 3.44921 2.22119 3.44921C2.80712 3.44921 3.30427 3.66228 3.71264 4.0884C4.13877 4.51453 4.35184 5.01168 4.35184 5.57985C4.35184 6.14802 4.13877 6.64517 3.71264 7.0713C3.30427 7.47967 2.80712 7.68386 2.22119 7.68386ZM0.516683 22.5983V9.28184H3.95234V22.5983H0.516683ZM20.3354 19.8551C18.2935 19.8551 17.0418 19.0206 16.5801 17.3516H26.6208C26.7096 16.8545 26.7539 16.384 26.7539 15.9401C26.7539 13.9515 26.1147 12.2825 24.8364 10.9331C23.5757 9.58368 21.9689 8.90898 20.0158 8.90898C17.9562 8.90898 16.2694 9.58368 14.9555 10.9331C13.6416 12.2647 12.9847 13.9337 12.9847 15.9401C12.9847 17.9642 13.6505 19.6421 14.9821 20.9737C16.3138 22.3054 18.0805 22.9712 20.2821 22.9712C22.8389 22.9712 24.7742 22.0213 26.0881 20.1215L23.3183 18.5235C22.6436 19.4113 21.6493 19.8551 20.3354 19.8551ZM23.3183 14.6883H16.5269C16.7222 13.8361 17.1217 13.1791 17.7253 12.7175C18.329 12.2381 19.0925 11.9984 20.0158 11.9984C20.797 11.9984 21.4895 12.2203 22.0932 12.6642C22.7146 13.1081 23.123 13.7828 23.3183 14.6883ZM32.588 11.5723C32.9076 10.72 33.4314 10.0808 34.1594 9.6547C34.9051 9.22857 35.7307 9.01551 36.6362 9.01551V12.8507C35.5887 12.7264 34.6476 12.9394 33.8131 13.4899C32.9964 14.0403 32.588 14.9547 32.588 16.2331V22.5983H29.1524V9.28184H32.588V11.5723ZM38.8586 7.0713C39.2848 7.47967 39.7819 7.68386 40.3501 7.68386C40.936 7.68386 41.4332 7.47967 41.8415 7.0713C42.2677 6.64517 42.4807 6.14802 42.4807 5.57985C42.4807 5.01168 42.2677 4.51453 41.8415 4.0884C41.4332 3.66228 40.936 3.44921 40.3501 3.44921C39.7819 3.44921 39.2848 3.66228 38.8586 4.0884C38.4503 4.51453 38.2461 5.01168 38.2461 5.57985C38.2461 6.14802 38.4503 6.64517 38.8586 7.0713ZM42.0812 9.28184H38.6456V22.5983H42.0812V9.28184ZM51.884 22.5983V3.15625H55.3197V22.5983H51.884ZM72.0205 9.28184H68.5848V10.8532C67.9755 10.0863 67.2201 9.54628 66.3187 9.23314V12.4422C66.7672 12.6198 67.1674 12.8891 67.5195 13.2502C68.2297 13.9426 68.5848 14.8393 68.5848 15.9401C68.5848 17.0409 68.2297 17.9464 67.5195 18.6567C66.827 19.3491 65.9482 19.6953 64.8828 19.6953C63.8175 19.6953 62.9386 19.3491 62.2462 18.6567C61.5537 17.9464 61.2075 17.0409 61.2075 15.9401C61.2075 14.8393 61.5537 13.9426 62.2462 13.2502C62.6187 12.8681 63.0452 12.5888 63.5257 12.4122V8.94771C62.0531 9.10979 60.7655 9.78046 59.6628 10.9597C58.4021 12.3091 57.7718 13.9692 57.7718 15.9401C57.7718 17.9109 58.4021 19.5799 59.6628 20.9471C60.9411 22.2965 62.4681 22.9712 64.2436 22.9712C66.1079 22.9712 67.555 22.3231 68.5848 21.027V22.5983H72.0205V9.28184ZM82.8861 8.90898C84.6794 8.90898 86.2064 9.59256 87.467 10.9597C88.7454 12.3091 89.3846 13.9692 89.3846 15.9401C89.3846 17.9109 88.7454 19.5799 87.467 20.9471C86.2064 22.2965 84.6794 22.9712 82.8861 22.9712C81.0218 22.9712 79.5836 22.3231 78.5716 21.027V22.5983H75.1359V3.95524H78.5716V10.8532C79.5836 9.55705 81.0218 8.90898 82.8861 8.90898ZM79.6103 18.6567C80.3027 19.3491 81.1816 19.6953 82.2469 19.6953C83.3122 19.6953 84.1911 19.3491 84.8836 18.6567C85.5938 17.9464 85.9489 17.0409 85.9489 15.9401C85.9489 14.8393 85.5938 13.9426 84.8836 13.2502C84.1911 12.5399 83.3122 12.1848 82.2469 12.1848C81.1816 12.1848 80.3027 12.5399 79.6103 13.2502C78.9178 13.9426 78.5716 14.8393 78.5716 15.9401C78.5716 17.0409 78.9178 17.9464 79.6103 18.6567ZM95.3832 13.9426C94.9216 13.7118 94.6908 13.4188 94.6908 13.0637C94.6908 12.7264 94.8328 12.46 95.1169 12.2647C95.4187 12.0694 95.7916 11.9718 96.2355 11.9718C97.2298 11.9718 97.94 12.4245 98.3661 13.3301L101.296 11.7321C100.781 10.8266 100.08 10.1341 99.1918 9.6547C98.304 9.15755 97.3186 8.90898 96.2355 8.90898C94.7973 8.90898 93.59 9.29072 92.6134 10.0542C91.6546 10.7999 91.1752 11.8297 91.1752 13.1436C91.1752 14.0136 91.406 14.7416 91.8677 15.3275C92.3471 15.8957 92.9241 16.313 93.5988 16.5793C94.2735 16.8456 94.9482 17.0676 95.6229 17.2451C96.2976 17.4227 96.8658 17.6268 97.3274 17.8577C97.8068 18.0707 98.0465 18.3548 98.0465 18.7099C98.0465 19.4734 97.434 19.8551 96.2089 19.8551C94.8595 19.8551 93.9894 19.2781 93.5988 18.124L90.6159 19.8019C91.6102 21.9148 93.4745 22.9712 96.2089 22.9712C97.7358 22.9712 99.0053 22.6072 100.017 21.8793C101.047 21.1335 101.562 20.0771 101.562 18.7099C101.562 17.8044 101.322 17.0498 100.843 16.4461C100.381 15.8424 99.8132 15.4163 99.1385 15.1677C98.4638 14.9014 97.7891 14.6883 97.1144 14.5285C96.4397 14.351 95.8626 14.1557 95.3832 13.9426Z" fill="#191919"/>
<circle cx="65.5872" cy="6.35824" r="1.36557" fill="#E8985D"/>
<circle cx="62.2582" cy="4.12194" r="0.870474" fill="#E8985D"/>
<circle cx="63.4169" cy="1.55511" r="0.668876" fill="#E8985D"/>
</svg>
