<svg width="58" height="57" viewBox="0 0 58 57" fill="none" xmlns="http://www.w3.org/2000/svg">
<circle cx="29.0315" cy="28.4319" r="28.3592" fill="#E8E6E6"/>
<path fill-rule="evenodd" clip-rule="evenodd" d="M13.6616 22.2431L38.8419 16.5325L38.493 14.9933C38.3961 14.5552 37.9542 14.28 37.5199 14.3769L13.9213 19.6921C13.4832 19.7891 13.2079 20.2272 13.3048 20.6653C13.425 21.1886 13.5413 21.7198 13.6616 22.2431ZM13.4522 18.2965L37.3494 12.9192C38.4891 12.6634 39.6251 13.3806 39.881 14.5204L42.3854 25.5889H40.889L39.753 20.5761L14.5726 26.2867L16.1311 33.1605L16.2707 33.7692C16.3249 34.0134 16.5692 34.1723 16.8173 34.1142L17.0034 34.0716V35.537L16.9762 35.5451C16.0303 35.7583 15.0882 35.1574 14.8711 34.2154L11.8432 20.8323C11.7153 20.2624 11.8084 19.7274 12.1185 19.2312C12.4286 18.7349 12.8823 18.4247 13.4521 18.2968L13.4522 18.2965ZM19.6552 25.9882C18.4883 25.9882 17.5384 26.942 17.5384 28.1089V41.8796C17.5384 43.0466 18.4883 43.9964 19.6552 43.9964H44.1572C45.3241 43.9964 46.2778 43.0427 46.2778 41.8796V28.1089C46.2778 26.942 45.3241 25.9882 44.1572 25.9882H19.6552ZM43.6416 32.1525C43.6416 31.2181 43.6416 30.2839 43.6416 29.3495C43.6416 29.1673 43.4981 29.0238 43.3159 29.0238C41.2263 29.0238 39.1366 29.0238 37.047 29.0238C36.8686 29.0238 36.7213 29.1711 36.7213 29.3495C36.7213 30.2839 36.7213 31.2181 36.7213 32.1525C36.7213 32.3309 36.8686 32.4781 37.047 32.4781C39.1366 32.4781 41.2263 32.4781 43.3159 32.4781C43.4903 32.4781 43.6416 32.3347 43.6416 32.1525ZM39.0203 40.6506C38.8381 40.6506 38.6907 40.5033 38.6907 40.325V39.6737C38.6907 39.4953 38.8381 39.348 39.0203 39.348H43.312C43.4903 39.348 43.6376 39.4953 43.6376 39.6737V40.325C43.6376 40.5033 43.4903 40.6506 43.312 40.6506H39.0203ZM33.0305 40.6506C32.8521 40.6506 32.7048 40.5033 32.7048 40.325V39.6775C32.7048 39.4953 32.8521 39.3519 33.0305 39.3519H37.3261C37.5044 39.3519 37.6518 39.4992 37.6518 39.6775V40.325C37.6518 40.5033 37.5044 40.6506 37.3261 40.6506H33.0305ZM27.0445 40.6506C26.8662 40.6506 26.7189 40.5033 26.7189 40.325V39.6775C26.7189 39.4953 26.8662 39.3519 27.0445 39.3519H31.3402C31.5185 39.3519 31.6658 39.4992 31.6658 39.6775V40.325C31.6658 40.5033 31.5185 40.6506 31.3402 40.6506H27.0445ZM21.0586 40.6506C20.8803 40.6506 20.733 40.5033 20.733 40.325V39.6775C20.733 39.4953 20.8803 39.3519 21.0586 39.3519H25.3543C25.5326 39.3519 25.6799 39.4992 25.6799 39.6775V40.325C25.6799 40.5033 25.5326 40.6506 25.3543 40.6506H21.0586Z" fill="#687A61"/>
</svg>
